<svg xmlns="http://www.w3.org/2000/svg" xmlns:xlink="http://www.w3.org/1999/xlink" viewBox="0 0 200 200"><defs><pattern id="a" width="48" height="48" patternTransform="translate(16.03 -55.44)" patternUnits="userSpaceOnUse" viewBox="0 0 48 48"><rect width="48" height="48" fill="none"/><path d="M4,38.5A2.5,2.5,0,0,0,6.5,36h-5A2.5,2.5,0,0,0,4,38.5Z" fill="#1b0bc9"/><path d="M12,38.5A2.5,2.5,0,0,0,14.5,36h-5A2.5,2.5,0,0,0,12,38.5Z" fill="#1b0bc9"/><path d="M20,38.5A2.5,2.5,0,0,0,22.5,36h-5A2.5,2.5,0,0,0,20,38.5Z" fill="#1b0bc9"/><path d="M28,38.5A2.5,2.5,0,0,0,30.5,36h-5A2.5,2.5,0,0,0,28,38.5Z" fill="#1b0bc9"/><path d="M36,38.5A2.5,2.5,0,0,0,38.5,36h-5A2.5,2.5,0,0,0,36,38.5Z" fill="#1b0bc9"/><path d="M44,38.5A2.5,2.5,0,0,0,46.5,36h-5A2.5,2.5,0,0,0,44,38.5Z" fill="#1b0bc9"/><path d="M2.5,42A2.5,2.5,0,0,0,0,39.5v5A2.5,2.5,0,0,0,2.5,42Z" fill="#1b0bc9"/><circle cx="8" cy="42" r="2.5" fill="#1b0bc9"/><circle cx="16" cy="42" r="2.5" fill="#1b0bc9"/><circle cx="24" cy="42" r="2.5" fill="#1b0bc9"/><circle cx="32" cy="42" r="2.5" fill="#1b0bc9"/><circle cx="40" cy="42" r="2.5" fill="#1b0bc9"/><path d="M45.5,42A2.5,2.5,0,0,0,48,44.5v-5A2.5,2.5,0,0,0,45.5,42Z" fill="#1b0bc9"/><circle cx="4" cy="48" r="2.5" fill="#1b0bc9"/><circle cx="12" cy="48" r="2.5" fill="#1b0bc9"/><circle cx="20" cy="48" r="2.5" fill="#1b0bc9"/><circle cx="28" cy="48" r="2.5" fill="#1b0bc9"/><circle cx="36" cy="48" r="2.5" fill="#1b0bc9"/><circle cx="44" cy="48" r="2.5" fill="#1b0bc9"/><path d="M4,14.5A2.5,2.5,0,0,0,6.5,12h-5A2.5,2.5,0,0,0,4,14.5Z" fill="#1b0bc9"/><path d="M12,14.5A2.5,2.5,0,0,0,14.5,12h-5A2.5,2.5,0,0,0,12,14.5Z" fill="#1b0bc9"/><path d="M20,14.5A2.5,2.5,0,0,0,22.5,12h-5A2.5,2.5,0,0,0,20,14.5Z" fill="#1b0bc9"/><path d="M28,14.5A2.5,2.5,0,0,0,30.5,12h-5A2.5,2.5,0,0,0,28,14.5Z" fill="#1b0bc9"/><path d="M36,14.5A2.5,2.5,0,0,0,38.5,12h-5A2.5,2.5,0,0,0,36,14.5Z" fill="#1b0bc9"/><path d="M44,14.5A2.5,2.5,0,0,0,46.5,12h-5A2.5,2.5,0,0,0,44,14.5Z" fill="#1b0bc9"/><path d="M2.5,18A2.5,2.5,0,0,0,0,15.5v5A2.5,2.5,0,0,0,2.5,18Z" fill="#1b0bc9"/><circle cx="8" cy="18" r="2.5" fill="#1b0bc9"/><circle cx="16" cy="18" r="2.5" fill="#1b0bc9"/><circle cx="24" cy="18" r="2.5" fill="#1b0bc9"/><circle cx="32" cy="18" r="2.5" fill="#1b0bc9"/><circle cx="40" cy="18" r="2.5" fill="#1b0bc9"/><path d="M45.5,18A2.5,2.5,0,0,0,48,20.5v-5A2.5,2.5,0,0,0,45.5,18Z" fill="#1b0bc9"/><circle cx="4" cy="24" r="2.5" fill="#1b0bc9"/><circle cx="12" cy="24" r="2.5" fill="#1b0bc9"/><circle cx="20" cy="24" r="2.5" fill="#1b0bc9"/><circle cx="28" cy="24" r="2.5" fill="#1b0bc9"/><circle cx="36" cy="24" r="2.5" fill="#1b0bc9"/><circle cx="44" cy="24" r="2.5" fill="#1b0bc9"/><path d="M2.5,30A2.5,2.5,0,0,0,0,27.5v5A2.5,2.5,0,0,0,2.5,30Z" fill="#1b0bc9"/><circle cx="8" cy="30" r="2.5" fill="#1b0bc9"/><circle cx="16" cy="30" r="2.5" fill="#1b0bc9"/><circle cx="24" cy="30" r="2.5" fill="#1b0bc9"/><circle cx="32" cy="30" r="2.5" fill="#1b0bc9"/><circle cx="40" cy="30" r="2.5" fill="#1b0bc9"/><path d="M45.5,30A2.5,2.5,0,0,0,48,32.5v-5A2.5,2.5,0,0,0,45.5,30Z" fill="#1b0bc9"/><path d="M4,33.5A2.5,2.5,0,0,0,1.5,36h5A2.5,2.5,0,0,0,4,33.5Z" fill="#1b0bc9"/><path d="M12,33.5A2.5,2.5,0,0,0,9.5,36h5A2.5,2.5,0,0,0,12,33.5Z" fill="#1b0bc9"/><path d="M20,33.5A2.5,2.5,0,0,0,17.5,36h5A2.5,2.5,0,0,0,20,33.5Z" fill="#1b0bc9"/><path d="M28,33.5A2.5,2.5,0,0,0,25.5,36h5A2.5,2.5,0,0,0,28,33.5Z" fill="#1b0bc9"/><path d="M36,33.5A2.5,2.5,0,0,0,33.5,36h5A2.5,2.5,0,0,0,36,33.5Z" fill="#1b0bc9"/><path d="M44,33.5A2.5,2.5,0,0,0,41.5,36h5A2.5,2.5,0,0,0,44,33.5Z" fill="#1b0bc9"/><circle cx="4" r="2.5" fill="#1b0bc9"/><circle cx="12" r="2.5" fill="#1b0bc9"/><circle cx="20" r="2.5" fill="#1b0bc9"/><circle cx="28" r="2.5" fill="#1b0bc9"/><circle cx="36" r="2.5" fill="#1b0bc9"/><circle cx="44" r="2.5" fill="#1b0bc9"/><path d="M2.5,6A2.5,2.5,0,0,0,0,3.5v5A2.5,2.5,0,0,0,2.5,6Z" fill="#1b0bc9"/><circle cx="8" cy="6" r="2.5" fill="#1b0bc9"/><circle cx="16" cy="6" r="2.5" fill="#1b0bc9"/><circle cx="24" cy="6" r="2.5" fill="#1b0bc9"/><circle cx="32" cy="6" r="2.5" fill="#1b0bc9"/><circle cx="40" cy="6" r="2.5" fill="#1b0bc9"/><path d="M45.5,6A2.5,2.5,0,0,0,48,8.5v-5A2.5,2.5,0,0,0,45.5,6Z" fill="#1b0bc9"/><path d="M4,9.5A2.5,2.5,0,0,0,1.5,12h5A2.5,2.5,0,0,0,4,9.5Z" fill="#1b0bc9"/><path d="M12,9.5A2.5,2.5,0,0,0,9.5,12h5A2.5,2.5,0,0,0,12,9.5Z" fill="#1b0bc9"/><path d="M20,9.5A2.5,2.5,0,0,0,17.5,12h5A2.5,2.5,0,0,0,20,9.5Z" fill="#1b0bc9"/><path d="M28,9.5A2.5,2.5,0,0,0,25.5,12h5A2.5,2.5,0,0,0,28,9.5Z" fill="#1b0bc9"/><path d="M36,9.5A2.5,2.5,0,0,0,33.5,12h5A2.5,2.5,0,0,0,36,9.5Z" fill="#1b0bc9"/><path d="M44,9.5A2.5,2.5,0,0,0,41.5,12h5A2.5,2.5,0,0,0,44,9.5Z" fill="#1b0bc9"/></pattern></defs><path d="M177.85,24.76h-52a2.34,2.34,0,0,0-.59.09L73.85,40.67,22.44,24.85a2,2,0,0,0-1.78.31,2,2,0,0,0-.81,1.6v140a2,2,0,0,0,1.41,1.92l52,16a2,2,0,0,0,.59.08,2,2,0,0,0,.59-.08l51.71-15.92h51.7a2,2,0,0,0,2-2v-140A2,2,0,0,0,177.85,24.76Zm-102,71.47a1.88,1.88,0,0,0,.57.72,44,44,0,0,0,5.43,3.52,1.93,1.93,0,0,0,1,.25,2,2,0,0,0,1-3.76,40,40,0,0,1-5-3.2,2,2,0,0,0-2.8.39,2.09,2.09,0,0,0-.17.37V44.24l48-14.77V48.13h0c-2,.49-3.93,1-5.87,1.54A2,2,0,0,0,119,53.53c1.6-.45,3.21-.87,4.84-1.28V96.58a48.84,48.84,0,0,1-5.51,2.06,2,2,0,0,0,.59,3.91,2.06,2.06,0,0,0,.59-.09c1.47-.45,2.91-1,4.33-1.56v36.3a2,2,0,0,0-1.26.1q-2.79,1.27-5.48,2.63a2,2,0,0,0,.9,3.79,2,2,0,0,0,.9-.22q2.43-1.22,4.94-2.37v24.16l-48,14.77Zm-52,58c1.21.47,3,1.13,5.44,1.87a2,2,0,0,0,.59.09,2,2,0,0,0,.58-3.91c-2.53-.78-4.4-1.47-5.53-1.92a2,2,0,0,0-1.08-.07V107.44c.69-.65,2-1.83,3.78-3.41A2,2,0,0,0,25,101c-.42.36-.79.7-1.15,1V39.81c.45,0,1.13,0,2,.08H26a2,2,0,0,0,.17-4c-1-.09-1.77-.1-2.34-.1V29.47l48,14.77V68.73a2.13,2.13,0,0,0-.49.15q-2.7,1.47-5.28,3a2,2,0,0,0,2,3.47c1.23-.71,2.5-1.41,3.77-2.12V87.3c-1-1.07-1.93-2.18-2.85-3.36a2,2,0,0,0-3.15,2.47c1.35,1.72,2.75,3.34,4.18,4.83a2,2,0,0,0,1.44.62,2.53,2.53,0,0,0,.38-.07v64.8a2,2,0,0,0-.64-.07c-1.94.19-3.91.32-5.87.39a2,2,0,0,0,.07,4h.07c2-.08,4.09-.21,6.11-.41a2.5,2.5,0,0,0,.26-.07v19.63l-48-14.77Zm104,10.51v-136h48V33a1.92,1.92,0,0,0-.33.14,27,27,0,0,0-2.5,2.08,2,2,0,0,0-.13,2.82,2,2,0,0,0,1.48.66,2,2,0,0,0,1.34-.52l.14-.13v5.53L174,43.41a2,2,0,0,0-2.12,1.87,2,2,0,0,0,1.87,2.12l2.12.16v72.35c-.8.18-2.74.61-5.53,1.3a2,2,0,0,0,.48,3.94,2,2,0,0,0,.48-.06c2-.5,3.58-.85,4.57-1.08v40.75Z" fill="#1b0bc9"/><path d="M51.85,60.69c.28.62.54,1.26.8,1.92.51,1.29,1,2.55,1.58,3.79a2,2,0,0,0,1.83,1.2,1.89,1.89,0,0,0,.8-.17,2,2,0,0,0,1-2.63c-.52-1.19-1-2.42-1.52-3.67-.28-.7-.57-1.39-.86-2.05a2,2,0,1,0-3.66,1.61Z" fill="#1b0bc9"/><path d="M96.49,105a2,2,0,0,0,.19-4A32,32,0,0,1,91,99.94a2,2,0,1,0-1.1,3.85A36.17,36.17,0,0,0,96.29,105Z" fill="#1b0bc9"/><path d="M48.07,53.77a2,2,0,0,0,1.66.88,2,2,0,0,0,1.66-3.11,40.34,40.34,0,0,0-4-5.1,2,2,0,0,0-2.92,2.74A35.55,35.55,0,0,1,48.07,53.77Z" fill="#1b0bc9"/><path d="M33.32,41.63a29.7,29.7,0,0,1,5.16,2.6,1.91,1.91,0,0,0,1.07.32,2,2,0,0,0,1.08-3.69,33,33,0,0,0-5.88-3,2,2,0,1,0-1.43,3.73Z" fill="#1b0bc9"/><path d="M104.86,105c2.16-.13,4.3-.36,6.33-.68a2,2,0,1,0-.61-3.95c-1.92.3-3.93.51-6,.64a2,2,0,0,0,.12,4Z" fill="#1b0bc9"/><path d="M135.52,89.12a45.22,45.22,0,0,1-4.7,3.62,2,2,0,1,0,2.23,3.32,50.65,50.65,0,0,0,5.11-3.93,2,2,0,0,0-2.64-3Z" fill="#1b0bc9"/><path d="M169.87,41.21a2,2,0,0,0-2.82.23c-.45.54-.91,1.11-1.36,1.67-2,0-3.93,0-5.88,0a2,2,0,0,0,.05,4h.06c1,0,1.92,0,2.88,0a2,2,0,0,0,.75,2.07,2,2,0,0,0,1.19.39,2,2,0,0,0,1.61-.81c1.23-1.67,2.5-3.27,3.76-4.75A2,2,0,0,0,169.87,41.21Z" fill="#1b0bc9"/><path d="M155.94,61.47a2,2,0,0,0,1,.25,2,2,0,0,0,1.74-1c1-1.8,2.07-3.56,3.13-5.23a2,2,0,0,0-3.39-2.14c-1.09,1.73-2.17,3.55-3.22,5.4A2,2,0,0,0,155.94,61.47Z" fill="#1b0bc9"/><path d="M144.12,86a61.08,61.08,0,0,0,3.81-5.14,2,2,0,0,0-3.34-2.21,56.75,56.75,0,0,1-3.55,4.8,2,2,0,0,0,1.54,3.27A2,2,0,0,0,144.12,86Z" fill="#1b0bc9"/><path d="M154,65.23a2,2,0,0,0-2.68.9c-.56,1.15-1.13,2.32-1.69,3.54-.32.69-.65,1.37-1,2a2,2,0,0,0,.89,2.69,2.08,2.08,0,0,0,.9.21,2,2,0,0,0,1.79-1.1c.35-.7.7-1.42,1-2.15.54-1.18,1.1-2.33,1.65-3.44A2,2,0,0,0,154,65.23Z" fill="#1b0bc9"/><path d="M64.41,77.35c-1-1.66-2-3.43-3-5.25A2,2,0,1,0,57.86,74c.38.7.77,1.39,1.15,2.08q-2.55,1.59-5,3.15a2,2,0,0,0,1.09,3.68,2,2,0,0,0,1.09-.32c1.56-1,3.18-2,4.83-3.06a2,2,0,0,0,1.66.9,2.05,2.05,0,0,0,1.06-.3A2,2,0,0,0,64.41,77.35Z" fill="#1b0bc9"/><path d="M105.13,57.85a2,2,0,0,0,.67-.12c1.85-.66,3.73-1.3,5.62-1.92a2,2,0,1,0-1.23-3.8c-1.93.63-3.85,1.28-5.74,2a2,2,0,0,0,.68,3.89Z" fill="#1b0bc9"/><path d="M92.1,63a2,2,0,0,0,.79-.16c1.8-.78,3.64-1.54,5.49-2.29a2,2,0,1,0-1.48-3.71Q94.07,58,91.3,59.14A2,2,0,0,0,92.1,63Z" fill="#1b0bc9"/><path d="M86.61,63.42a2,2,0,0,0-2.66-1q-2.78,1.31-5.44,2.66a2,2,0,0,0,.9,3.79,2,2,0,0,0,.9-.22q2.63-1.32,5.35-2.61A2,2,0,0,0,86.61,63.42Z" fill="#1b0bc9"/><path d="M145.9,48.16l.24,0q2.93-.33,5.89-.57a2,2,0,0,0,1.84-2.15,2,2,0,0,0-2.15-1.83c-2,.15-4,.35-6,.58a2,2,0,0,0,.22,4Z" fill="#1b0bc9"/><path d="M43.58,90.82a2,2,0,0,0,1.17-.38q2.32-1.68,4.86-3.44a2,2,0,1,0-2.27-3.29q-2.58,1.79-4.94,3.5A2,2,0,0,0,42,90,2,2,0,0,0,43.58,90.82Z" fill="#1b0bc9"/><path d="M137.66,45.29q-3,.49-6,1.09a2,2,0,0,0,.39,4,2.58,2.58,0,0,0,.39,0q2.9-.59,5.84-1.06a2,2,0,0,0-.65-4Z" fill="#1b0bc9"/><path d="M38.74,92.4a2,2,0,0,0-2.8-.36c-1.72,1.33-3.31,2.59-4.76,3.76a2,2,0,1,0,2.53,3.11c1.42-1.16,3-2.4,4.67-3.7A2,2,0,0,0,38.74,92.4Z" fill="#1b0bc9"/><path d="M149,127.25c-1.87.59-3.79,1.23-5.74,1.9a2,2,0,0,0,.65,3.89,2.06,2.06,0,0,0,.65-.11c1.92-.66,3.82-1.28,5.66-1.87a2,2,0,1,0-1.22-3.81Z" fill="#1b0bc9"/><path d="M135.66,131.88c-1.87.71-3.76,1.44-5.64,2.21a2,2,0,0,0,.76,3.85,1.8,1.8,0,0,0,.75-.15q2.78-1.12,5.54-2.17a2,2,0,1,0-1.41-3.74Z" fill="#1b0bc9"/><path d="M162.52,123.24c-1.82.5-3.77,1.05-5.82,1.65a2,2,0,0,0,.56,3.92,1.88,1.88,0,0,0,.57-.09c2-.59,3.95-1.13,5.74-1.62a2,2,0,0,0-1-3.86Z" fill="#1b0bc9"/><path d="M97.72,150c-1.8.75-3.65,1.44-5.49,2.07a2,2,0,0,0,.64,3.89,1.8,1.8,0,0,0,.64-.11c1.92-.65,3.85-1.37,5.74-2.15a2,2,0,0,0-1.53-3.7Z" fill="#1b0bc9"/><path d="M110,143.82l-.38.23c-1.55.92-3.15,1.81-4.76,2.64a2,2,0,0,0,.92,3.77,2,2,0,0,0,.92-.22c1.67-.87,3.34-1.79,5-2.76l.37-.21a2,2,0,0,0-2-3.45Z" fill="#1b0bc9"/><path d="M84.71,154.24c-1.88.46-3.81.87-5.74,1.22a2,2,0,0,0,.35,4,2.19,2.19,0,0,0,.36,0c2-.36,4-.79,6-1.27a2,2,0,0,0-1-3.88Z" fill="#1b0bc9"/><path d="M57.5,156.89c-1.94-.08-3.92-.21-5.88-.4a2,2,0,1,0-.38,4c2,.2,4.09.33,6.1.42h.08a2,2,0,0,0,.08-4Z" fill="#1b0bc9"/><path d="M43.83,155.45c-1.93-.32-3.88-.71-5.78-1.14a2,2,0,1,0-.88,3.9c2,.45,4,.85,6,1.19l.34,0a2,2,0,0,0,.33-4Z" fill="#1b0bc9"/><path d="M75.85,94.52V44.24l48-14.77V165.29l-48,14.77V96.23" fill="url(#a)"/></svg>