<svg xmlns="http://www.w3.org/2000/svg" xmlns:xlink="http://www.w3.org/1999/xlink" viewBox="0 0 200 200"><defs><pattern id="a" width="48" height="48" patternTransform="translate(-6 -19.34)" patternUnits="userSpaceOnUse" viewBox="0 0 48 48"><rect width="48" height="48" fill="none"/><path d="M4,38.5A2.5,2.5,0,0,0,6.5,36h-5A2.5,2.5,0,0,0,4,38.5Z" fill="#1b0bc9"/><path d="M12,38.5A2.5,2.5,0,0,0,14.5,36h-5A2.5,2.5,0,0,0,12,38.5Z" fill="#1b0bc9"/><path d="M20,38.5A2.5,2.5,0,0,0,22.5,36h-5A2.5,2.5,0,0,0,20,38.5Z" fill="#1b0bc9"/><path d="M28,38.5A2.5,2.5,0,0,0,30.5,36h-5A2.5,2.5,0,0,0,28,38.5Z" fill="#1b0bc9"/><path d="M36,38.5A2.5,2.5,0,0,0,38.5,36h-5A2.5,2.5,0,0,0,36,38.5Z" fill="#1b0bc9"/><path d="M44,38.5A2.5,2.5,0,0,0,46.5,36h-5A2.5,2.5,0,0,0,44,38.5Z" fill="#1b0bc9"/><path d="M2.5,42A2.5,2.5,0,0,0,0,39.5v5A2.5,2.5,0,0,0,2.5,42Z" fill="#1b0bc9"/><circle cx="8" cy="42" r="2.5" fill="#1b0bc9"/><circle cx="16" cy="42" r="2.5" fill="#1b0bc9"/><circle cx="24" cy="42" r="2.5" fill="#1b0bc9"/><circle cx="32" cy="42" r="2.5" fill="#1b0bc9"/><circle cx="40" cy="42" r="2.5" fill="#1b0bc9"/><path d="M45.5,42A2.5,2.5,0,0,0,48,44.5v-5A2.5,2.5,0,0,0,45.5,42Z" fill="#1b0bc9"/><circle cx="4" cy="48" r="2.5" fill="#1b0bc9"/><circle cx="12" cy="48" r="2.5" fill="#1b0bc9"/><circle cx="20" cy="48" r="2.5" fill="#1b0bc9"/><circle cx="28" cy="48" r="2.5" fill="#1b0bc9"/><circle cx="36" cy="48" r="2.5" fill="#1b0bc9"/><circle cx="44" cy="48" r="2.5" fill="#1b0bc9"/><path d="M4,14.5A2.5,2.5,0,0,0,6.5,12h-5A2.5,2.5,0,0,0,4,14.5Z" fill="#1b0bc9"/><path d="M12,14.5A2.5,2.5,0,0,0,14.5,12h-5A2.5,2.5,0,0,0,12,14.5Z" fill="#1b0bc9"/><path d="M20,14.5A2.5,2.5,0,0,0,22.5,12h-5A2.5,2.5,0,0,0,20,14.5Z" fill="#1b0bc9"/><path d="M28,14.5A2.5,2.5,0,0,0,30.5,12h-5A2.5,2.5,0,0,0,28,14.5Z" fill="#1b0bc9"/><path d="M36,14.5A2.5,2.5,0,0,0,38.5,12h-5A2.5,2.5,0,0,0,36,14.5Z" fill="#1b0bc9"/><path d="M44,14.5A2.5,2.5,0,0,0,46.5,12h-5A2.5,2.5,0,0,0,44,14.5Z" fill="#1b0bc9"/><path d="M2.5,18A2.5,2.5,0,0,0,0,15.5v5A2.5,2.5,0,0,0,2.5,18Z" fill="#1b0bc9"/><circle cx="8" cy="18" r="2.5" fill="#1b0bc9"/><circle cx="16" cy="18" r="2.5" fill="#1b0bc9"/><circle cx="24" cy="18" r="2.5" fill="#1b0bc9"/><circle cx="32" cy="18" r="2.5" fill="#1b0bc9"/><circle cx="40" cy="18" r="2.5" fill="#1b0bc9"/><path d="M45.5,18A2.5,2.5,0,0,0,48,20.5v-5A2.5,2.5,0,0,0,45.5,18Z" fill="#1b0bc9"/><circle cx="4" cy="24" r="2.5" fill="#1b0bc9"/><circle cx="12" cy="24" r="2.5" fill="#1b0bc9"/><circle cx="20" cy="24" r="2.5" fill="#1b0bc9"/><circle cx="28" cy="24" r="2.5" fill="#1b0bc9"/><circle cx="36" cy="24" r="2.5" fill="#1b0bc9"/><circle cx="44" cy="24" r="2.5" fill="#1b0bc9"/><path d="M2.5,30A2.5,2.5,0,0,0,0,27.5v5A2.5,2.5,0,0,0,2.5,30Z" fill="#1b0bc9"/><circle cx="8" cy="30" r="2.5" fill="#1b0bc9"/><circle cx="16" cy="30" r="2.5" fill="#1b0bc9"/><circle cx="24" cy="30" r="2.5" fill="#1b0bc9"/><circle cx="32" cy="30" r="2.5" fill="#1b0bc9"/><circle cx="40" cy="30" r="2.5" fill="#1b0bc9"/><path d="M45.5,30A2.5,2.5,0,0,0,48,32.5v-5A2.5,2.5,0,0,0,45.5,30Z" fill="#1b0bc9"/><path d="M4,33.5A2.5,2.5,0,0,0,1.5,36h5A2.5,2.5,0,0,0,4,33.5Z" fill="#1b0bc9"/><path d="M12,33.5A2.5,2.5,0,0,0,9.5,36h5A2.5,2.5,0,0,0,12,33.5Z" fill="#1b0bc9"/><path d="M20,33.5A2.5,2.5,0,0,0,17.5,36h5A2.5,2.5,0,0,0,20,33.5Z" fill="#1b0bc9"/><path d="M28,33.5A2.5,2.5,0,0,0,25.5,36h5A2.5,2.5,0,0,0,28,33.5Z" fill="#1b0bc9"/><path d="M36,33.5A2.5,2.5,0,0,0,33.5,36h5A2.5,2.5,0,0,0,36,33.5Z" fill="#1b0bc9"/><path d="M44,33.5A2.5,2.5,0,0,0,41.5,36h5A2.5,2.5,0,0,0,44,33.5Z" fill="#1b0bc9"/><circle cx="4" r="2.5" fill="#1b0bc9"/><circle cx="12" r="2.5" fill="#1b0bc9"/><circle cx="20" r="2.5" fill="#1b0bc9"/><circle cx="28" r="2.5" fill="#1b0bc9"/><circle cx="36" r="2.5" fill="#1b0bc9"/><circle cx="44" r="2.5" fill="#1b0bc9"/><path d="M2.5,6A2.5,2.5,0,0,0,0,3.5v5A2.5,2.5,0,0,0,2.5,6Z" fill="#1b0bc9"/><circle cx="8" cy="6" r="2.5" fill="#1b0bc9"/><circle cx="16" cy="6" r="2.5" fill="#1b0bc9"/><circle cx="24" cy="6" r="2.5" fill="#1b0bc9"/><circle cx="32" cy="6" r="2.5" fill="#1b0bc9"/><circle cx="40" cy="6" r="2.5" fill="#1b0bc9"/><path d="M45.5,6A2.5,2.5,0,0,0,48,8.5v-5A2.5,2.5,0,0,0,45.5,6Z" fill="#1b0bc9"/><path d="M4,9.5A2.5,2.5,0,0,0,1.5,12h5A2.5,2.5,0,0,0,4,9.5Z" fill="#1b0bc9"/><path d="M12,9.5A2.5,2.5,0,0,0,9.5,12h5A2.5,2.5,0,0,0,12,9.5Z" fill="#1b0bc9"/><path d="M20,9.5A2.5,2.5,0,0,0,17.5,12h5A2.5,2.5,0,0,0,20,9.5Z" fill="#1b0bc9"/><path d="M28,9.5A2.5,2.5,0,0,0,25.5,12h5A2.5,2.5,0,0,0,28,9.5Z" fill="#1b0bc9"/><path d="M36,9.5A2.5,2.5,0,0,0,33.5,12h5A2.5,2.5,0,0,0,36,9.5Z" fill="#1b0bc9"/><path d="M44,9.5A2.5,2.5,0,0,0,41.5,12h5A2.5,2.5,0,0,0,44,9.5Z" fill="#1b0bc9"/></pattern></defs><path d="M20,80a2,2,0,0,0,.73,2.74L28,87l-1.86,3.21a11.86,11.86,0,0,0,4.31,16.18l9.88,5.72a11.85,11.85,0,0,0,16.18-4.31l1.86-3.21,7.48,4.33L64,112.1a11.84,11.84,0,0,0,4.3,16.18L78.17,134a11.81,11.81,0,0,0,16.17-4.31l1.86-3.21L158,162.27l14.27,22.56a2,2,0,0,0,1.7.93,2,2,0,0,0,1.69-3.07l-10.18-16.1,11.3,6.55a2,2,0,0,0,1,.27,2,2,0,0,0,1-3.73l-17.92-10.39-35.24-55.72,3.14-2a11.84,11.84,0,0,0,3.67-16.34l-6.1-9.65A11.85,11.85,0,0,0,110,71.93l-3.14,2-4.61-7.31,3.13-2A11.84,11.84,0,0,0,109,48.29l-6.1-9.65A11.86,11.86,0,0,0,86.59,35l-3.13,2L77,26.69a2,2,0,0,0-3.39,2.14l6.49,10.25-3.14,2A11.87,11.87,0,0,0,73.26,57.4l6.11,9.65a11.79,11.79,0,0,0,7.4,5.22,12.32,12.32,0,0,0,2.63.29,11.78,11.78,0,0,0,6.3-1.83l3.13-2,4.62,7.31-3.13,2a11.84,11.84,0,0,0-3.68,16.33l6.1,9.65a11.83,11.83,0,0,0,16.34,3.68l3.13-2L153.36,155,98.21,123l1.86-3.21a11.85,11.85,0,0,0-4.31-16.17l-9.88-5.73a11.86,11.86,0,0,0-16.18,4.31l-1.86,3.21-7.47-4.33,1.86-3.21a11.87,11.87,0,0,0-4.31-16.18L48,76h0A11.86,11.86,0,0,0,31.86,80.3L30,83.51l-7.25-4.2A2,2,0,0,0,20,80ZM93.56,67.35a7.85,7.85,0,0,1-10.81-2.44l-6.1-9.65a7.84,7.84,0,0,1,2.43-10.81l4.83-3.05h0l4.82-3a7.85,7.85,0,0,1,10.82,2.44l6.1,9.65a7.85,7.85,0,0,1-2.44,10.81l-3.13,2-3.4-5.37A2,2,0,1,0,93.3,60l3.39,5.37Zm23.38,37a7.83,7.83,0,0,1-10.81-2.44L100,92.22a7.85,7.85,0,0,1,2.44-10.81l9.65-6.1a7.85,7.85,0,0,1,10.81,2.43l6.1,9.65a7.86,7.86,0,0,1-2.43,10.82l-3.14,2-3.15-5a2,2,0,0,0-3.39,2.14l3.16,5Zm-43.78-.08a7.82,7.82,0,0,1,10.71-2.86l9.88,5.73a7.84,7.84,0,0,1,2.86,10.7L94.75,121l-5.11-3a2,2,0,1,0-2,3.46l5.11,3-1.86,3.21a7.85,7.85,0,0,1-10.71,2.85l-9.88-5.72a7.85,7.85,0,0,1-2.85-10.71ZM35.32,82.31a7.8,7.8,0,0,1,4.76-3.65,7.93,7.93,0,0,1,2-.27A7.8,7.8,0,0,1,46,79.45h0l9.88,5.73a7.83,7.83,0,0,1,2.85,10.7L56.9,99.09l-5.5-3.18a2,2,0,1,0-2,3.46l5.5,3.19L53,105.77a7.84,7.84,0,0,1-10.71,2.85l-9.88-5.72A7.84,7.84,0,0,1,29.6,92.19Z" fill="#1b0bc9"/><path d="M36.24,42.31a2,2,0,1,0,1.18-3.82,8.33,8.33,0,1,0-4.9,15.92A4.33,4.33,0,1,1,30,62.69a2,2,0,0,0-1.18,3.83,8.31,8.31,0,0,0,6.35-.6,8.33,8.33,0,0,0-1.45-15.33,4.33,4.33,0,0,1,2.55-8.28Z" fill="#1b0bc9"/><path d="M53.1,42.31a2,2,0,1,0,1.17-3.82,8.33,8.33,0,1,0-4.9,15.92,4.34,4.34,0,0,1,2.86,5.42,4.31,4.31,0,0,1-2.11,2.55,4.26,4.26,0,0,1-3.3.31,2,2,0,0,0-1.18,3.83,8.33,8.33,0,0,0,4.91-15.93,4.33,4.33,0,1,1,2.55-8.28Z" fill="#1b0bc9"/><path d="M35.32,82.31a7.8,7.8,0,0,1,4.76-3.65,7.93,7.93,0,0,1,2-.27A7.8,7.8,0,0,1,46,79.45h0l9.88,5.73a7.83,7.83,0,0,1,2.85,10.7L56.9,99.09l-5.5-3.18a2,2,0,1,0-2,3.46l5.5,3.19L53,105.77a7.84,7.84,0,0,1-10.71,2.85l-9.88-5.72A7.84,7.84,0,0,1,29.6,92.19Z" fill="url(#a)"/><path d="M116.94,104.31a7.83,7.83,0,0,1-10.81-2.44L100,92.22a7.85,7.85,0,0,1,2.44-10.81l9.65-6.1a7.85,7.85,0,0,1,10.81,2.43l6.1,9.65a7.86,7.86,0,0,1-2.43,10.82l-3.14,2-3.15-5a2,2,0,0,0-3.39,2.14l3.16,5Z" fill="url(#a)"/></svg>