<svg xmlns="http://www.w3.org/2000/svg" xmlns:xlink="http://www.w3.org/1999/xlink" viewBox="0 0 200 200"><defs><pattern id="a" width="48" height="48" patternTransform="translate(21.16 -58.04)" patternUnits="userSpaceOnUse" viewBox="0 0 48 48"><rect width="48" height="48" fill="none"/><path d="M4,38.5A2.5,2.5,0,0,0,6.5,36h-5A2.5,2.5,0,0,0,4,38.5Z" fill="#1b0bc9"/><path d="M12,38.5A2.5,2.5,0,0,0,14.5,36h-5A2.5,2.5,0,0,0,12,38.5Z" fill="#1b0bc9"/><path d="M20,38.5A2.5,2.5,0,0,0,22.5,36h-5A2.5,2.5,0,0,0,20,38.5Z" fill="#1b0bc9"/><path d="M28,38.5A2.5,2.5,0,0,0,30.5,36h-5A2.5,2.5,0,0,0,28,38.5Z" fill="#1b0bc9"/><path d="M36,38.5A2.5,2.5,0,0,0,38.5,36h-5A2.5,2.5,0,0,0,36,38.5Z" fill="#1b0bc9"/><path d="M44,38.5A2.5,2.5,0,0,0,46.5,36h-5A2.5,2.5,0,0,0,44,38.5Z" fill="#1b0bc9"/><path d="M2.5,42A2.5,2.5,0,0,0,0,39.5v5A2.5,2.5,0,0,0,2.5,42Z" fill="#1b0bc9"/><circle cx="8" cy="42" r="2.5" fill="#1b0bc9"/><circle cx="16" cy="42" r="2.5" fill="#1b0bc9"/><circle cx="24" cy="42" r="2.5" fill="#1b0bc9"/><circle cx="32" cy="42" r="2.5" fill="#1b0bc9"/><circle cx="40" cy="42" r="2.5" fill="#1b0bc9"/><path d="M45.5,42A2.5,2.5,0,0,0,48,44.5v-5A2.5,2.5,0,0,0,45.5,42Z" fill="#1b0bc9"/><circle cx="4" cy="48" r="2.5" fill="#1b0bc9"/><circle cx="12" cy="48" r="2.5" fill="#1b0bc9"/><circle cx="20" cy="48" r="2.5" fill="#1b0bc9"/><circle cx="28" cy="48" r="2.5" fill="#1b0bc9"/><circle cx="36" cy="48" r="2.5" fill="#1b0bc9"/><circle cx="44" cy="48" r="2.5" fill="#1b0bc9"/><path d="M4,14.5A2.5,2.5,0,0,0,6.5,12h-5A2.5,2.5,0,0,0,4,14.5Z" fill="#1b0bc9"/><path d="M12,14.5A2.5,2.5,0,0,0,14.5,12h-5A2.5,2.5,0,0,0,12,14.5Z" fill="#1b0bc9"/><path d="M20,14.5A2.5,2.5,0,0,0,22.5,12h-5A2.5,2.5,0,0,0,20,14.5Z" fill="#1b0bc9"/><path d="M28,14.5A2.5,2.5,0,0,0,30.5,12h-5A2.5,2.5,0,0,0,28,14.5Z" fill="#1b0bc9"/><path d="M36,14.5A2.5,2.5,0,0,0,38.5,12h-5A2.5,2.5,0,0,0,36,14.5Z" fill="#1b0bc9"/><path d="M44,14.5A2.5,2.5,0,0,0,46.5,12h-5A2.5,2.5,0,0,0,44,14.5Z" fill="#1b0bc9"/><path d="M2.5,18A2.5,2.5,0,0,0,0,15.5v5A2.5,2.5,0,0,0,2.5,18Z" fill="#1b0bc9"/><circle cx="8" cy="18" r="2.5" fill="#1b0bc9"/><circle cx="16" cy="18" r="2.5" fill="#1b0bc9"/><circle cx="24" cy="18" r="2.5" fill="#1b0bc9"/><circle cx="32" cy="18" r="2.5" fill="#1b0bc9"/><circle cx="40" cy="18" r="2.5" fill="#1b0bc9"/><path d="M45.5,18A2.5,2.5,0,0,0,48,20.5v-5A2.5,2.5,0,0,0,45.5,18Z" fill="#1b0bc9"/><circle cx="4" cy="24" r="2.5" fill="#1b0bc9"/><circle cx="12" cy="24" r="2.5" fill="#1b0bc9"/><circle cx="20" cy="24" r="2.5" fill="#1b0bc9"/><circle cx="28" cy="24" r="2.5" fill="#1b0bc9"/><circle cx="36" cy="24" r="2.5" fill="#1b0bc9"/><circle cx="44" cy="24" r="2.5" fill="#1b0bc9"/><path d="M2.5,30A2.5,2.5,0,0,0,0,27.5v5A2.5,2.5,0,0,0,2.5,30Z" fill="#1b0bc9"/><circle cx="8" cy="30" r="2.5" fill="#1b0bc9"/><circle cx="16" cy="30" r="2.5" fill="#1b0bc9"/><circle cx="24" cy="30" r="2.5" fill="#1b0bc9"/><circle cx="32" cy="30" r="2.5" fill="#1b0bc9"/><circle cx="40" cy="30" r="2.5" fill="#1b0bc9"/><path d="M45.5,30A2.5,2.5,0,0,0,48,32.5v-5A2.5,2.5,0,0,0,45.5,30Z" fill="#1b0bc9"/><path d="M4,33.5A2.5,2.5,0,0,0,1.5,36h5A2.5,2.5,0,0,0,4,33.5Z" fill="#1b0bc9"/><path d="M12,33.5A2.5,2.5,0,0,0,9.5,36h5A2.5,2.5,0,0,0,12,33.5Z" fill="#1b0bc9"/><path d="M20,33.5A2.5,2.5,0,0,0,17.5,36h5A2.5,2.5,0,0,0,20,33.5Z" fill="#1b0bc9"/><path d="M28,33.5A2.5,2.5,0,0,0,25.5,36h5A2.5,2.5,0,0,0,28,33.5Z" fill="#1b0bc9"/><path d="M36,33.5A2.5,2.5,0,0,0,33.5,36h5A2.5,2.5,0,0,0,36,33.5Z" fill="#1b0bc9"/><path d="M44,33.5A2.5,2.5,0,0,0,41.5,36h5A2.5,2.5,0,0,0,44,33.5Z" fill="#1b0bc9"/><circle cx="4" r="2.5" fill="#1b0bc9"/><circle cx="12" r="2.5" fill="#1b0bc9"/><circle cx="20" r="2.5" fill="#1b0bc9"/><circle cx="28" r="2.5" fill="#1b0bc9"/><circle cx="36" r="2.5" fill="#1b0bc9"/><circle cx="44" r="2.5" fill="#1b0bc9"/><path d="M2.5,6A2.5,2.5,0,0,0,0,3.5v5A2.5,2.5,0,0,0,2.5,6Z" fill="#1b0bc9"/><circle cx="8" cy="6" r="2.5" fill="#1b0bc9"/><circle cx="16" cy="6" r="2.5" fill="#1b0bc9"/><circle cx="24" cy="6" r="2.5" fill="#1b0bc9"/><circle cx="32" cy="6" r="2.5" fill="#1b0bc9"/><circle cx="40" cy="6" r="2.5" fill="#1b0bc9"/><path d="M45.5,6A2.5,2.5,0,0,0,48,8.5v-5A2.5,2.5,0,0,0,45.5,6Z" fill="#1b0bc9"/><path d="M4,9.5A2.5,2.5,0,0,0,1.5,12h5A2.5,2.5,0,0,0,4,9.5Z" fill="#1b0bc9"/><path d="M12,9.5A2.5,2.5,0,0,0,9.5,12h5A2.5,2.5,0,0,0,12,9.5Z" fill="#1b0bc9"/><path d="M20,9.5A2.5,2.5,0,0,0,17.5,12h5A2.5,2.5,0,0,0,20,9.5Z" fill="#1b0bc9"/><path d="M28,9.5A2.5,2.5,0,0,0,25.5,12h5A2.5,2.5,0,0,0,28,9.5Z" fill="#1b0bc9"/><path d="M36,9.5A2.5,2.5,0,0,0,33.5,12h5A2.5,2.5,0,0,0,36,9.5Z" fill="#1b0bc9"/><path d="M44,9.5A2.5,2.5,0,0,0,41.5,12h5A2.5,2.5,0,0,0,44,9.5Z" fill="#1b0bc9"/></pattern></defs><path d="M26.72,163.71H40.4v18.57a2,2,0,0,0,4,0V163.71h8.76v18.57a2,2,0,0,0,4,0V163.71h84.72v18.57a2,2,0,0,0,4,0V163.71h8.76v18.57a2,2,0,0,0,4,0V163.71h13.68a2,2,0,0,0,1.69-.93l10.4-16.5a2,2,0,0,0,0-2.14L174,127.64a2,2,0,0,0-1.69-.93H158.64v-7.43h13.68a2,2,0,0,0,2-2v-91a2,2,0,0,0-2-2H26.72a2,2,0,0,0-2,2v91a2,2,0,0,0,2,2H40.4v7.43H26.72a2,2,0,0,0-2,2v33A2,2,0,0,0,26.72,163.71Zm127.92-37h-8.76v-7.43h8.76Zm-12.76-7.43v7.43H57.16v-7.43Zm-113.16-91h141.6v87H28.72Zm15.68,91h8.76v7.43H44.4ZM28.72,130.71H171.21l9.15,14.5-9.15,14.5H28.72Z" fill="#1b0bc9"/><path d="M147.57,82.11a2,2,0,0,0-2,2V86.9H141.2c3.45-30.68-9.16-44.61-15.09-49.35a8.88,8.88,0,0,0-5.55-1.94H64.07a8.85,8.85,0,0,0-8.84,8.84V90.61a8.85,8.85,0,0,0,8.84,8.84h7.81a12.12,12.12,0,0,0,23.91,0h22.93v7.4a2,2,0,0,0,4,0v-7.4h11.14a6.36,6.36,0,0,0,6.27-5.22c.21-1.13.39-2.24.56-3.33h6.88a2,2,0,0,0,2-2V84.11A2,2,0,0,0,147.57,82.11ZM64.07,39.62h56.49a4.88,4.88,0,0,1,3,1.05c4.45,3.56,13,12.9,14.06,32.15H126.8V52.38a5.3,5.3,0,0,0-5.35-5.23h-15a5.3,5.3,0,0,0-5.36,5.23V72.82H59.23V44.45A4.84,4.84,0,0,1,64.07,39.62Zm41,55.83V52.38a1.3,1.3,0,0,1,1.36-1.23h15a1.3,1.3,0,0,1,1.36,1.23V95.45ZM83.84,105.59A8.14,8.14,0,1,1,92,97.45,8.15,8.15,0,0,1,83.84,105.59Zm0-20.28a12.15,12.15,0,0,0-12,10.14H64.07a4.84,4.84,0,0,1-4.84-4.84V76.82H101.1V95.45H95.79A12.15,12.15,0,0,0,83.84,85.31Zm50,10.14h-7.05V76.82h11a93,93,0,0,1-1.6,16.69A2.36,2.36,0,0,1,133.86,95.45Z" fill="#1b0bc9"/><path d="M69.43,64.33h21.4A5.15,5.15,0,0,0,96,59.18V52.29a5.15,5.15,0,0,0-5.14-5.14H69.43a5.15,5.15,0,0,0-5.15,5.14v6.89A5.16,5.16,0,0,0,69.43,64.33ZM92,52.29v6.89a1.15,1.15,0,0,1-1.14,1.15H85.89V51.15h4.94A1.14,1.14,0,0,1,92,52.29Zm-23.69,0a1.14,1.14,0,0,1,1.14-1.14H81.89v9.18H69.42a1.15,1.15,0,0,1-1.14-1.15Z" fill="#1b0bc9"/><path d="M105.09,95.45V52.38a1.3,1.3,0,0,1,1.36-1.23h15a1.3,1.3,0,0,1,1.36,1.23V95.45Z" fill="url(#a)"/><path d="M83.84,105.59A8.14,8.14,0,1,1,92,97.45,8.15,8.15,0,0,1,83.84,105.59Z" fill="#1b0bc9"/><polygon points="28.72 130.71 171.21 130.71 180.35 145.21 171.21 159.71 28.72 159.71 28.72 130.71" fill="url(#a)"/></svg>