<svg xmlns="http://www.w3.org/2000/svg" xmlns:xlink="http://www.w3.org/1999/xlink" viewBox="0 0 200 200"><defs><pattern id="a" width="48" height="48" patternTransform="translate(-1.54 -42.34)" patternUnits="userSpaceOnUse" viewBox="0 0 48 48"><rect width="48" height="48" fill="none"/><path d="M4,38.5A2.5,2.5,0,0,0,6.5,36h-5A2.5,2.5,0,0,0,4,38.5Z" fill="#1b0bc9"/><path d="M12,38.5A2.5,2.5,0,0,0,14.5,36h-5A2.5,2.5,0,0,0,12,38.5Z" fill="#1b0bc9"/><path d="M20,38.5A2.5,2.5,0,0,0,22.5,36h-5A2.5,2.5,0,0,0,20,38.5Z" fill="#1b0bc9"/><path d="M28,38.5A2.5,2.5,0,0,0,30.5,36h-5A2.5,2.5,0,0,0,28,38.5Z" fill="#1b0bc9"/><path d="M36,38.5A2.5,2.5,0,0,0,38.5,36h-5A2.5,2.5,0,0,0,36,38.5Z" fill="#1b0bc9"/><path d="M44,38.5A2.5,2.5,0,0,0,46.5,36h-5A2.5,2.5,0,0,0,44,38.5Z" fill="#1b0bc9"/><path d="M2.5,42A2.5,2.5,0,0,0,0,39.5v5A2.5,2.5,0,0,0,2.5,42Z" fill="#1b0bc9"/><circle cx="8" cy="42" r="2.5" fill="#1b0bc9"/><circle cx="16" cy="42" r="2.5" fill="#1b0bc9"/><circle cx="24" cy="42" r="2.5" fill="#1b0bc9"/><circle cx="32" cy="42" r="2.5" fill="#1b0bc9"/><circle cx="40" cy="42" r="2.5" fill="#1b0bc9"/><path d="M45.5,42A2.5,2.5,0,0,0,48,44.5v-5A2.5,2.5,0,0,0,45.5,42Z" fill="#1b0bc9"/><circle cx="4" cy="48" r="2.5" fill="#1b0bc9"/><circle cx="12" cy="48" r="2.5" fill="#1b0bc9"/><circle cx="20" cy="48" r="2.5" fill="#1b0bc9"/><circle cx="28" cy="48" r="2.5" fill="#1b0bc9"/><circle cx="36" cy="48" r="2.5" fill="#1b0bc9"/><circle cx="44" cy="48" r="2.5" fill="#1b0bc9"/><path d="M4,14.5A2.5,2.5,0,0,0,6.5,12h-5A2.5,2.5,0,0,0,4,14.5Z" fill="#1b0bc9"/><path d="M12,14.5A2.5,2.5,0,0,0,14.5,12h-5A2.5,2.5,0,0,0,12,14.5Z" fill="#1b0bc9"/><path d="M20,14.5A2.5,2.5,0,0,0,22.5,12h-5A2.5,2.5,0,0,0,20,14.5Z" fill="#1b0bc9"/><path d="M28,14.5A2.5,2.5,0,0,0,30.5,12h-5A2.5,2.5,0,0,0,28,14.5Z" fill="#1b0bc9"/><path d="M36,14.5A2.5,2.5,0,0,0,38.5,12h-5A2.5,2.5,0,0,0,36,14.5Z" fill="#1b0bc9"/><path d="M44,14.5A2.5,2.5,0,0,0,46.5,12h-5A2.5,2.5,0,0,0,44,14.5Z" fill="#1b0bc9"/><path d="M2.5,18A2.5,2.5,0,0,0,0,15.5v5A2.5,2.5,0,0,0,2.5,18Z" fill="#1b0bc9"/><circle cx="8" cy="18" r="2.5" fill="#1b0bc9"/><circle cx="16" cy="18" r="2.5" fill="#1b0bc9"/><circle cx="24" cy="18" r="2.5" fill="#1b0bc9"/><circle cx="32" cy="18" r="2.5" fill="#1b0bc9"/><circle cx="40" cy="18" r="2.5" fill="#1b0bc9"/><path d="M45.5,18A2.5,2.5,0,0,0,48,20.5v-5A2.5,2.5,0,0,0,45.5,18Z" fill="#1b0bc9"/><circle cx="4" cy="24" r="2.5" fill="#1b0bc9"/><circle cx="12" cy="24" r="2.5" fill="#1b0bc9"/><circle cx="20" cy="24" r="2.5" fill="#1b0bc9"/><circle cx="28" cy="24" r="2.5" fill="#1b0bc9"/><circle cx="36" cy="24" r="2.5" fill="#1b0bc9"/><circle cx="44" cy="24" r="2.5" fill="#1b0bc9"/><path d="M2.5,30A2.5,2.5,0,0,0,0,27.5v5A2.5,2.5,0,0,0,2.5,30Z" fill="#1b0bc9"/><circle cx="8" cy="30" r="2.5" fill="#1b0bc9"/><circle cx="16" cy="30" r="2.5" fill="#1b0bc9"/><circle cx="24" cy="30" r="2.5" fill="#1b0bc9"/><circle cx="32" cy="30" r="2.5" fill="#1b0bc9"/><circle cx="40" cy="30" r="2.5" fill="#1b0bc9"/><path d="M45.5,30A2.5,2.5,0,0,0,48,32.5v-5A2.5,2.5,0,0,0,45.5,30Z" fill="#1b0bc9"/><path d="M4,33.5A2.5,2.5,0,0,0,1.5,36h5A2.5,2.5,0,0,0,4,33.5Z" fill="#1b0bc9"/><path d="M12,33.5A2.5,2.5,0,0,0,9.5,36h5A2.5,2.5,0,0,0,12,33.5Z" fill="#1b0bc9"/><path d="M20,33.5A2.5,2.5,0,0,0,17.5,36h5A2.5,2.5,0,0,0,20,33.5Z" fill="#1b0bc9"/><path d="M28,33.5A2.5,2.5,0,0,0,25.5,36h5A2.5,2.5,0,0,0,28,33.5Z" fill="#1b0bc9"/><path d="M36,33.5A2.5,2.5,0,0,0,33.5,36h5A2.5,2.5,0,0,0,36,33.5Z" fill="#1b0bc9"/><path d="M44,33.5A2.5,2.5,0,0,0,41.5,36h5A2.5,2.5,0,0,0,44,33.5Z" fill="#1b0bc9"/><circle cx="4" r="2.5" fill="#1b0bc9"/><circle cx="12" r="2.5" fill="#1b0bc9"/><circle cx="20" r="2.5" fill="#1b0bc9"/><circle cx="28" r="2.5" fill="#1b0bc9"/><circle cx="36" r="2.5" fill="#1b0bc9"/><circle cx="44" r="2.5" fill="#1b0bc9"/><path d="M2.5,6A2.5,2.5,0,0,0,0,3.5v5A2.5,2.5,0,0,0,2.5,6Z" fill="#1b0bc9"/><circle cx="8" cy="6" r="2.5" fill="#1b0bc9"/><circle cx="16" cy="6" r="2.5" fill="#1b0bc9"/><circle cx="24" cy="6" r="2.5" fill="#1b0bc9"/><circle cx="32" cy="6" r="2.5" fill="#1b0bc9"/><circle cx="40" cy="6" r="2.5" fill="#1b0bc9"/><path d="M45.5,6A2.5,2.5,0,0,0,48,8.5v-5A2.5,2.5,0,0,0,45.5,6Z" fill="#1b0bc9"/><path d="M4,9.5A2.5,2.5,0,0,0,1.5,12h5A2.5,2.5,0,0,0,4,9.5Z" fill="#1b0bc9"/><path d="M12,9.5A2.5,2.5,0,0,0,9.5,12h5A2.5,2.5,0,0,0,12,9.5Z" fill="#1b0bc9"/><path d="M20,9.5A2.5,2.5,0,0,0,17.5,12h5A2.5,2.5,0,0,0,20,9.5Z" fill="#1b0bc9"/><path d="M28,9.5A2.5,2.5,0,0,0,25.5,12h5A2.5,2.5,0,0,0,28,9.5Z" fill="#1b0bc9"/><path d="M36,9.5A2.5,2.5,0,0,0,33.5,12h5A2.5,2.5,0,0,0,36,9.5Z" fill="#1b0bc9"/><path d="M44,9.5A2.5,2.5,0,0,0,41.5,12h5A2.5,2.5,0,0,0,44,9.5Z" fill="#1b0bc9"/></pattern></defs><path d="M80.51,76.1C75.29,74,69.89,75.55,66.13,80,62.36,75.55,57,74,51.74,76.1,46.21,78.3,41.18,84.85,43.23,94,46.55,109,64.59,116.66,65.35,117a2.08,2.08,0,0,0,1.55,0c.76-.32,18.8-8,22.12-22.94C91.07,84.85,86,78.3,80.51,76.1Zm4.61,17.07c-2.52,11.29-15.66,18.18-19,19.77-3.34-1.58-16.47-8.45-19-19.77-1.54-6.9,2.08-11.76,6.09-13.36a8.67,8.67,0,0,1,3.13-.6c2.74,0,5.77,1.37,8.05,5.21a2.08,2.08,0,0,0,3.44,0C71.06,79,75.72,78.5,79,79.81,83,81.41,86.65,86.27,85.12,93.17Z" fill="#1b0bc9"/><path d="M46.61,44.4a5.8,5.8,0,0,0-3.31-6.78,4.87,4.87,0,0,0-4.65.53A4.87,4.87,0,0,0,34,37.62a5.79,5.79,0,0,0-3.3,6.78c1.11,5,6.94,7.48,7.18,7.58a2,2,0,0,0,1.55,0C39.67,51.88,45.5,49.39,46.61,44.4Z" fill="#1b0bc9"/><path d="M94.62,137.66a2,2,0,0,0-1.54,0c-.25.1-6.07,2.59-7.19,7.58A5.81,5.81,0,0,0,89.2,152a4.89,4.89,0,0,0,4.65-.53,4.83,4.83,0,0,0,4.65.52,5.79,5.79,0,0,0,3.31-6.78C100.7,140.25,94.87,137.77,94.62,137.66Z" fill="#1b0bc9"/><path d="M173.08,55.6,111.65,42.66V37.89a9.49,9.49,0,0,0-9.48-9.48H30.08a9.49,9.49,0,0,0-9.48,9.48V154.45a9.49,9.49,0,0,0,9.48,9.47h37a9.48,9.48,0,0,0,7.51,9.42l70.55,14.87a10.21,10.21,0,0,0,2,.2,9.47,9.47,0,0,0,9.25-7.52l24-114.06A9.49,9.49,0,0,0,173.08,55.6ZM24.6,154.45V37.88a5.49,5.49,0,0,1,5.48-5.47h72.09a5.48,5.48,0,0,1,5.47,5.47V154.45a5.47,5.47,0,0,1-5.47,5.47H30.08A5.48,5.48,0,0,1,24.6,154.45ZM176.48,66l-24,114.06a5.48,5.48,0,0,1-6.49,4.23L75.42,169.43a5.49,5.49,0,0,1-4.34-5.51h31.09a9.48,9.48,0,0,0,9.47-9.47V119.88l6.92,19.59a2,2,0,0,0,1.88,1.34,2,2,0,0,0,1.46-.63L141.85,119a2,2,0,0,0,.43-2l-9.69-27.46a2,2,0,0,0-3.34-.71l-17.61,18.72V46.75l60.61,12.77A5.47,5.47,0,0,1,176.48,66Zm-63.43,45.83L129.91,93.9l8.2,23.21L121.24,135Z" fill="#1b0bc9"/><path d="M144.23,159.21a2,2,0,0,0-3.34-.71l-6.65,7.06a2,2,0,0,0-.43,2l3.23,9.14a2,2,0,0,0,1.48,1.3,1.84,1.84,0,0,0,.41,0,2.06,2.06,0,0,0,1.46-.63l6.64-7.07a2,2,0,0,0,.43-2Z" fill="#1b0bc9"/><polygon points="113.05 111.83 129.91 93.9 138.11 117.11 121.24 135.04 113.05 111.83" fill="#fff"/><path d="M85.12,93.17c-2.52,11.29-15.66,18.18-19,19.77-3.34-1.58-16.47-8.45-19-19.77-1.54-6.9,2.08-11.76,6.09-13.36a8.67,8.67,0,0,1,3.13-.6c2.74,0,5.77,1.37,8.05,5.21a2.08,2.08,0,0,0,3.44,0C71.06,79,75.72,78.5,79,79.81,83,81.41,86.65,86.27,85.12,93.17Z" fill="url(#a)"/><path d="M176.48,66l-24,114.06a5.48,5.48,0,0,1-6.49,4.23L75.42,169.43a5.49,5.49,0,0,1-4.34-5.51h31.09a9.48,9.48,0,0,0,9.47-9.47V119.88l6.92,19.59a2,2,0,0,0,1.88,1.34,2,2,0,0,0,1.46-.63L141.85,119a2,2,0,0,0,.43-2l-9.69-27.46a2,2,0,0,0-3.34-.71l-17.61,18.72V46.75l60.61,12.77A5.47,5.47,0,0,1,176.48,66Z" fill="url(#a)"/></svg>