<svg xmlns="http://www.w3.org/2000/svg" xmlns:xlink="http://www.w3.org/1999/xlink" viewBox="0 0 200 200"><defs><pattern id="a" width="48" height="48" patternTransform="translate(-2.09 -56.52)" patternUnits="userSpaceOnUse" viewBox="0 0 48 48"><rect width="48" height="48" fill="none"/><path d="M4,38.5A2.5,2.5,0,0,0,6.5,36h-5A2.5,2.5,0,0,0,4,38.5Z" fill="#1b0bc9"/><path d="M12,38.5A2.5,2.5,0,0,0,14.5,36h-5A2.5,2.5,0,0,0,12,38.5Z" fill="#1b0bc9"/><path d="M20,38.5A2.5,2.5,0,0,0,22.5,36h-5A2.5,2.5,0,0,0,20,38.5Z" fill="#1b0bc9"/><path d="M28,38.5A2.5,2.5,0,0,0,30.5,36h-5A2.5,2.5,0,0,0,28,38.5Z" fill="#1b0bc9"/><path d="M36,38.5A2.5,2.5,0,0,0,38.5,36h-5A2.5,2.5,0,0,0,36,38.5Z" fill="#1b0bc9"/><path d="M44,38.5A2.5,2.5,0,0,0,46.5,36h-5A2.5,2.5,0,0,0,44,38.5Z" fill="#1b0bc9"/><path d="M2.5,42A2.5,2.5,0,0,0,0,39.5v5A2.5,2.5,0,0,0,2.5,42Z" fill="#1b0bc9"/><circle cx="8" cy="42" r="2.5" fill="#1b0bc9"/><circle cx="16" cy="42" r="2.5" fill="#1b0bc9"/><circle cx="24" cy="42" r="2.5" fill="#1b0bc9"/><circle cx="32" cy="42" r="2.5" fill="#1b0bc9"/><circle cx="40" cy="42" r="2.5" fill="#1b0bc9"/><path d="M45.5,42A2.5,2.5,0,0,0,48,44.5v-5A2.5,2.5,0,0,0,45.5,42Z" fill="#1b0bc9"/><circle cx="4" cy="48" r="2.5" fill="#1b0bc9"/><circle cx="12" cy="48" r="2.5" fill="#1b0bc9"/><circle cx="20" cy="48" r="2.5" fill="#1b0bc9"/><circle cx="28" cy="48" r="2.5" fill="#1b0bc9"/><circle cx="36" cy="48" r="2.5" fill="#1b0bc9"/><circle cx="44" cy="48" r="2.5" fill="#1b0bc9"/><path d="M4,14.5A2.5,2.5,0,0,0,6.5,12h-5A2.5,2.5,0,0,0,4,14.5Z" fill="#1b0bc9"/><path d="M12,14.5A2.5,2.5,0,0,0,14.5,12h-5A2.5,2.5,0,0,0,12,14.5Z" fill="#1b0bc9"/><path d="M20,14.5A2.5,2.5,0,0,0,22.5,12h-5A2.5,2.5,0,0,0,20,14.5Z" fill="#1b0bc9"/><path d="M28,14.5A2.5,2.5,0,0,0,30.5,12h-5A2.5,2.5,0,0,0,28,14.5Z" fill="#1b0bc9"/><path d="M36,14.5A2.5,2.5,0,0,0,38.5,12h-5A2.5,2.5,0,0,0,36,14.5Z" fill="#1b0bc9"/><path d="M44,14.5A2.5,2.5,0,0,0,46.5,12h-5A2.5,2.5,0,0,0,44,14.5Z" fill="#1b0bc9"/><path d="M2.5,18A2.5,2.5,0,0,0,0,15.5v5A2.5,2.5,0,0,0,2.5,18Z" fill="#1b0bc9"/><circle cx="8" cy="18" r="2.5" fill="#1b0bc9"/><circle cx="16" cy="18" r="2.5" fill="#1b0bc9"/><circle cx="24" cy="18" r="2.5" fill="#1b0bc9"/><circle cx="32" cy="18" r="2.5" fill="#1b0bc9"/><circle cx="40" cy="18" r="2.5" fill="#1b0bc9"/><path d="M45.5,18A2.5,2.5,0,0,0,48,20.5v-5A2.5,2.5,0,0,0,45.5,18Z" fill="#1b0bc9"/><circle cx="4" cy="24" r="2.5" fill="#1b0bc9"/><circle cx="12" cy="24" r="2.5" fill="#1b0bc9"/><circle cx="20" cy="24" r="2.5" fill="#1b0bc9"/><circle cx="28" cy="24" r="2.5" fill="#1b0bc9"/><circle cx="36" cy="24" r="2.5" fill="#1b0bc9"/><circle cx="44" cy="24" r="2.5" fill="#1b0bc9"/><path d="M2.5,30A2.5,2.5,0,0,0,0,27.5v5A2.5,2.5,0,0,0,2.5,30Z" fill="#1b0bc9"/><circle cx="8" cy="30" r="2.5" fill="#1b0bc9"/><circle cx="16" cy="30" r="2.5" fill="#1b0bc9"/><circle cx="24" cy="30" r="2.5" fill="#1b0bc9"/><circle cx="32" cy="30" r="2.5" fill="#1b0bc9"/><circle cx="40" cy="30" r="2.5" fill="#1b0bc9"/><path d="M45.5,30A2.5,2.5,0,0,0,48,32.5v-5A2.5,2.5,0,0,0,45.5,30Z" fill="#1b0bc9"/><path d="M4,33.5A2.5,2.5,0,0,0,1.5,36h5A2.5,2.5,0,0,0,4,33.5Z" fill="#1b0bc9"/><path d="M12,33.5A2.5,2.5,0,0,0,9.5,36h5A2.5,2.5,0,0,0,12,33.5Z" fill="#1b0bc9"/><path d="M20,33.5A2.5,2.5,0,0,0,17.5,36h5A2.5,2.5,0,0,0,20,33.5Z" fill="#1b0bc9"/><path d="M28,33.5A2.5,2.5,0,0,0,25.5,36h5A2.5,2.5,0,0,0,28,33.5Z" fill="#1b0bc9"/><path d="M36,33.5A2.5,2.5,0,0,0,33.5,36h5A2.5,2.5,0,0,0,36,33.5Z" fill="#1b0bc9"/><path d="M44,33.5A2.5,2.5,0,0,0,41.5,36h5A2.5,2.5,0,0,0,44,33.5Z" fill="#1b0bc9"/><circle cx="4" r="2.5" fill="#1b0bc9"/><circle cx="12" r="2.5" fill="#1b0bc9"/><circle cx="20" r="2.5" fill="#1b0bc9"/><circle cx="28" r="2.5" fill="#1b0bc9"/><circle cx="36" r="2.5" fill="#1b0bc9"/><circle cx="44" r="2.5" fill="#1b0bc9"/><path d="M2.5,6A2.5,2.5,0,0,0,0,3.5v5A2.5,2.5,0,0,0,2.5,6Z" fill="#1b0bc9"/><circle cx="8" cy="6" r="2.5" fill="#1b0bc9"/><circle cx="16" cy="6" r="2.5" fill="#1b0bc9"/><circle cx="24" cy="6" r="2.5" fill="#1b0bc9"/><circle cx="32" cy="6" r="2.5" fill="#1b0bc9"/><circle cx="40" cy="6" r="2.5" fill="#1b0bc9"/><path d="M45.5,6A2.5,2.5,0,0,0,48,8.5v-5A2.5,2.5,0,0,0,45.5,6Z" fill="#1b0bc9"/><path d="M4,9.5A2.5,2.5,0,0,0,1.5,12h5A2.5,2.5,0,0,0,4,9.5Z" fill="#1b0bc9"/><path d="M12,9.5A2.5,2.5,0,0,0,9.5,12h5A2.5,2.5,0,0,0,12,9.5Z" fill="#1b0bc9"/><path d="M20,9.5A2.5,2.5,0,0,0,17.5,12h5A2.5,2.5,0,0,0,20,9.5Z" fill="#1b0bc9"/><path d="M28,9.5A2.5,2.5,0,0,0,25.5,12h5A2.5,2.5,0,0,0,28,9.5Z" fill="#1b0bc9"/><path d="M36,9.5A2.5,2.5,0,0,0,33.5,12h5A2.5,2.5,0,0,0,36,9.5Z" fill="#1b0bc9"/><path d="M44,9.5A2.5,2.5,0,0,0,41.5,12h5A2.5,2.5,0,0,0,44,9.5Z" fill="#1b0bc9"/></pattern></defs><path d="M21.81,164.51l156,.09h0a2,2,0,1,0,0-4l-156-.09h0a2,2,0,0,0,0,4Z" fill="#1b0bc9"/><path d="M21.81,119.12h0a2,2,0,0,0,0,4l156,.09h0a2,2,0,1,0,0-4Z" fill="#1b0bc9"/><path d="M36.89,139.82h0a2,2,0,1,0,0,4h10.6a2,2,0,1,0,0-4Z" fill="#1b0bc9"/><path d="M65.7,139.83h0a2,2,0,0,0,0,4H76.3a2,2,0,0,0,0-4Z" fill="#1b0bc9"/><path d="M94.51,139.85h0a2,2,0,0,0,0,4H105.1a2,2,0,0,0,0-4Z" fill="#1b0bc9"/><path d="M123.32,139.87h0a2,2,0,0,0,0,4h10.6a2,2,0,1,0,0-4Z" fill="#1b0bc9"/><path d="M152.12,139.89h0a2,2,0,1,0,0,4h10.6a2,2,0,1,0,0-4Z" fill="#1b0bc9"/><path d="M43.68,36.93a2,2,0,0,0-1.47.91L27.61,61.26a2,2,0,0,0,1.65,3H32.4L20.81,81.69a2,2,0,0,0,.52,2.71,1.85,1.85,0,0,0,1.1.33H26.6L17.82,98.3a2,2,0,0,0,.57,2.7,2,2,0,0,0,1.08.32H39v19.51a2,2,0,0,0,2,2h5.86a2,2,0,0,0,2-2V101.32H68.25a2,2,0,0,0,2-1.94,2,2,0,0,0-.32-1.08L61.12,84.73h4.17a1.94,1.94,0,0,0,1.62-3L55.32,64.25h3.14a2,2,0,0,0,1.65-3L45.51,37.84A2,2,0,0,0,43.68,36.93Zm.18,5.61L55,60.34H51.67a2,2,0,0,0-1.94,2,2,2,0,0,0,.32,1L61.64,80.83H57.52a2,2,0,0,0-2,2,2.06,2.06,0,0,0,.3,1l8.81,13.6H23l8.81-13.6a2,2,0,0,0-1.65-3H26.09L37.67,63.36a1.94,1.94,0,0,0-.57-2.7,2,2,0,0,0-1-.32H32.73Z" fill="#1b0bc9"/><path d="M99.66,36.93a2,2,0,0,0-1.46.91L83.6,61.26A2,2,0,0,0,84.21,64a2,2,0,0,0,1,.3h3.14L76.8,81.69a2,2,0,0,0,.51,2.71,1.9,1.9,0,0,0,1.1.33h4.18L73.81,98.3a2,2,0,0,0,1.65,3H95v19.51a2,2,0,0,0,2,2h5.85a2,2,0,0,0,2-2V101.32h19.51a1.94,1.94,0,0,0,2-1.94,2,2,0,0,0-.32-1.08L117.1,84.73h4.18a2,2,0,0,0,1.62-3L111.31,64.25h3.14a2,2,0,0,0,2-2,2.06,2.06,0,0,0-.3-1L101.49,37.84A1.94,1.94,0,0,0,99.66,36.93Zm.19,5.61L111,60.34h-3.33a2,2,0,0,0-1.93,2,1.86,1.86,0,0,0,.32,1l11.58,17.47h-4.11a2,2,0,0,0-1.65,3l8.81,13.6H79l8.81-13.6a2,2,0,0,0-.61-2.69,2,2,0,0,0-1-.3H82.07L93.66,63.36a2,2,0,0,0-.57-2.7,2,2,0,0,0-1-.32H88.72Z" fill="#1b0bc9"/><path d="M156,36.93a2,2,0,0,0-1.47.91l-14.6,23.42a2,2,0,0,0,1.65,3h3.14L133.09,81.69a2,2,0,0,0,.52,2.71,1.85,1.85,0,0,0,1.1.33h4.17L130.1,98.3a2,2,0,0,0,.57,2.7,2,2,0,0,0,1.08.32h19.51v19.51a2,2,0,0,0,2,2h5.86a2,2,0,0,0,2-2V101.32h19.51a1.94,1.94,0,0,0,2-1.94,1.89,1.89,0,0,0-.31-1.08L173.4,84.73h4.17a1.94,1.94,0,0,0,1.62-3L167.6,64.25h3.14a2,2,0,0,0,1.65-3l-14.6-23.42A2,2,0,0,0,156,36.93Zm.18,5.61,11.13,17.8h-3.33a2,2,0,0,0-1.93,2,2,2,0,0,0,.32,1l11.58,17.47H169.8a2,2,0,0,0-2,2,2.06,2.06,0,0,0,.3,1L177,97.42H135.32l8.81-13.6a2,2,0,0,0-1.65-3h-4.12L150,63.36a1.94,1.94,0,0,0-.57-2.7,2,2,0,0,0-1-.32H145Z" fill="#1b0bc9"/><path d="M99.85,42.54,111,60.34h-3.33a2,2,0,0,0-1.93,2,1.86,1.86,0,0,0,.32,1l11.58,17.47h-4.11a2,2,0,0,0-1.65,3l8.81,13.6H79l8.81-13.6a2,2,0,0,0-.61-2.69,2,2,0,0,0-1-.3H82.07L93.66,63.36a2,2,0,0,0-.57-2.7,2,2,0,0,0-1-.32H88.72Z" fill="url(#a)"/></svg>