<svg xmlns="http://www.w3.org/2000/svg" xmlns:xlink="http://www.w3.org/1999/xlink" viewBox="0 0 200 200"><defs><pattern id="a" width="48" height="48" patternTransform="translate(-0.13 -55.89)" patternUnits="userSpaceOnUse" viewBox="0 0 48 48"><rect width="48" height="48" fill="none"/><path d="M4,38.5A2.5,2.5,0,0,0,6.5,36h-5A2.5,2.5,0,0,0,4,38.5Z" fill="#1b0bc9"/><path d="M12,38.5A2.5,2.5,0,0,0,14.5,36h-5A2.5,2.5,0,0,0,12,38.5Z" fill="#1b0bc9"/><path d="M20,38.5A2.5,2.5,0,0,0,22.5,36h-5A2.5,2.5,0,0,0,20,38.5Z" fill="#1b0bc9"/><path d="M28,38.5A2.5,2.5,0,0,0,30.5,36h-5A2.5,2.5,0,0,0,28,38.5Z" fill="#1b0bc9"/><path d="M36,38.5A2.5,2.5,0,0,0,38.5,36h-5A2.5,2.5,0,0,0,36,38.5Z" fill="#1b0bc9"/><path d="M44,38.5A2.5,2.5,0,0,0,46.5,36h-5A2.5,2.5,0,0,0,44,38.5Z" fill="#1b0bc9"/><path d="M2.5,42A2.5,2.5,0,0,0,0,39.5v5A2.5,2.5,0,0,0,2.5,42Z" fill="#1b0bc9"/><circle cx="8" cy="42" r="2.5" fill="#1b0bc9"/><circle cx="16" cy="42" r="2.5" fill="#1b0bc9"/><circle cx="24" cy="42" r="2.5" fill="#1b0bc9"/><circle cx="32" cy="42" r="2.5" fill="#1b0bc9"/><circle cx="40" cy="42" r="2.5" fill="#1b0bc9"/><path d="M45.5,42A2.5,2.5,0,0,0,48,44.5v-5A2.5,2.5,0,0,0,45.5,42Z" fill="#1b0bc9"/><circle cx="4" cy="48" r="2.5" fill="#1b0bc9"/><circle cx="12" cy="48" r="2.5" fill="#1b0bc9"/><circle cx="20" cy="48" r="2.5" fill="#1b0bc9"/><circle cx="28" cy="48" r="2.5" fill="#1b0bc9"/><circle cx="36" cy="48" r="2.5" fill="#1b0bc9"/><circle cx="44" cy="48" r="2.5" fill="#1b0bc9"/><path d="M4,14.5A2.5,2.5,0,0,0,6.5,12h-5A2.5,2.5,0,0,0,4,14.5Z" fill="#1b0bc9"/><path d="M12,14.5A2.5,2.5,0,0,0,14.5,12h-5A2.5,2.5,0,0,0,12,14.5Z" fill="#1b0bc9"/><path d="M20,14.5A2.5,2.5,0,0,0,22.5,12h-5A2.5,2.5,0,0,0,20,14.5Z" fill="#1b0bc9"/><path d="M28,14.5A2.5,2.5,0,0,0,30.5,12h-5A2.5,2.5,0,0,0,28,14.5Z" fill="#1b0bc9"/><path d="M36,14.5A2.5,2.5,0,0,0,38.5,12h-5A2.5,2.5,0,0,0,36,14.5Z" fill="#1b0bc9"/><path d="M44,14.5A2.5,2.5,0,0,0,46.5,12h-5A2.5,2.5,0,0,0,44,14.5Z" fill="#1b0bc9"/><path d="M2.5,18A2.5,2.5,0,0,0,0,15.5v5A2.5,2.5,0,0,0,2.5,18Z" fill="#1b0bc9"/><circle cx="8" cy="18" r="2.5" fill="#1b0bc9"/><circle cx="16" cy="18" r="2.5" fill="#1b0bc9"/><circle cx="24" cy="18" r="2.5" fill="#1b0bc9"/><circle cx="32" cy="18" r="2.5" fill="#1b0bc9"/><circle cx="40" cy="18" r="2.5" fill="#1b0bc9"/><path d="M45.5,18A2.5,2.5,0,0,0,48,20.5v-5A2.5,2.5,0,0,0,45.5,18Z" fill="#1b0bc9"/><circle cx="4" cy="24" r="2.5" fill="#1b0bc9"/><circle cx="12" cy="24" r="2.5" fill="#1b0bc9"/><circle cx="20" cy="24" r="2.5" fill="#1b0bc9"/><circle cx="28" cy="24" r="2.5" fill="#1b0bc9"/><circle cx="36" cy="24" r="2.5" fill="#1b0bc9"/><circle cx="44" cy="24" r="2.5" fill="#1b0bc9"/><path d="M2.5,30A2.5,2.5,0,0,0,0,27.5v5A2.5,2.5,0,0,0,2.5,30Z" fill="#1b0bc9"/><circle cx="8" cy="30" r="2.5" fill="#1b0bc9"/><circle cx="16" cy="30" r="2.5" fill="#1b0bc9"/><circle cx="24" cy="30" r="2.5" fill="#1b0bc9"/><circle cx="32" cy="30" r="2.5" fill="#1b0bc9"/><circle cx="40" cy="30" r="2.5" fill="#1b0bc9"/><path d="M45.5,30A2.5,2.5,0,0,0,48,32.5v-5A2.5,2.5,0,0,0,45.5,30Z" fill="#1b0bc9"/><path d="M4,33.5A2.5,2.5,0,0,0,1.5,36h5A2.5,2.5,0,0,0,4,33.5Z" fill="#1b0bc9"/><path d="M12,33.5A2.5,2.5,0,0,0,9.5,36h5A2.5,2.5,0,0,0,12,33.5Z" fill="#1b0bc9"/><path d="M20,33.5A2.5,2.5,0,0,0,17.5,36h5A2.5,2.5,0,0,0,20,33.5Z" fill="#1b0bc9"/><path d="M28,33.5A2.5,2.5,0,0,0,25.5,36h5A2.5,2.5,0,0,0,28,33.5Z" fill="#1b0bc9"/><path d="M36,33.5A2.5,2.5,0,0,0,33.5,36h5A2.5,2.5,0,0,0,36,33.5Z" fill="#1b0bc9"/><path d="M44,33.5A2.5,2.5,0,0,0,41.5,36h5A2.5,2.5,0,0,0,44,33.5Z" fill="#1b0bc9"/><circle cx="4" r="2.5" fill="#1b0bc9"/><circle cx="12" r="2.5" fill="#1b0bc9"/><circle cx="20" r="2.5" fill="#1b0bc9"/><circle cx="28" r="2.5" fill="#1b0bc9"/><circle cx="36" r="2.5" fill="#1b0bc9"/><circle cx="44" r="2.5" fill="#1b0bc9"/><path d="M2.5,6A2.5,2.5,0,0,0,0,3.5v5A2.5,2.5,0,0,0,2.5,6Z" fill="#1b0bc9"/><circle cx="8" cy="6" r="2.5" fill="#1b0bc9"/><circle cx="16" cy="6" r="2.5" fill="#1b0bc9"/><circle cx="24" cy="6" r="2.5" fill="#1b0bc9"/><circle cx="32" cy="6" r="2.5" fill="#1b0bc9"/><circle cx="40" cy="6" r="2.5" fill="#1b0bc9"/><path d="M45.5,6A2.5,2.5,0,0,0,48,8.5v-5A2.5,2.5,0,0,0,45.5,6Z" fill="#1b0bc9"/><path d="M4,9.5A2.5,2.5,0,0,0,1.5,12h5A2.5,2.5,0,0,0,4,9.5Z" fill="#1b0bc9"/><path d="M12,9.5A2.5,2.5,0,0,0,9.5,12h5A2.5,2.5,0,0,0,12,9.5Z" fill="#1b0bc9"/><path d="M20,9.5A2.5,2.5,0,0,0,17.5,12h5A2.5,2.5,0,0,0,20,9.5Z" fill="#1b0bc9"/><path d="M28,9.5A2.5,2.5,0,0,0,25.5,12h5A2.5,2.5,0,0,0,28,9.5Z" fill="#1b0bc9"/><path d="M36,9.5A2.5,2.5,0,0,0,33.5,12h5A2.5,2.5,0,0,0,36,9.5Z" fill="#1b0bc9"/><path d="M44,9.5A2.5,2.5,0,0,0,41.5,12h5A2.5,2.5,0,0,0,44,9.5Z" fill="#1b0bc9"/></pattern></defs><path d="M99.85,154.84A62.75,62.75,0,1,1,162.6,92.09,62.82,62.82,0,0,1,99.85,154.84Z" fill="url(#a)"/><path d="M166.6,92.09a66.75,66.75,0,1,0-76.39,66v25.34a2,2,0,0,0,4,0V158.58c1.86.16,3.74.26,5.64.26s3.5-.09,5.23-.23v24.86a2,2,0,0,0,4,0V158.18A66.84,66.84,0,0,0,166.6,92.09ZM99.85,154.84A62.75,62.75,0,1,1,162.6,92.09,62.82,62.82,0,0,1,99.85,154.84Z" fill="#1b0bc9"/><path d="M144.4,82.7H55.3a2.4,2.4,0,0,0-2.4,2.4v18a2.4,2.4,0,0,0,2.4,2.4h89.09a2.39,2.39,0,0,0,2.4-2.4v-18A2.39,2.39,0,0,0,144.4,82.7Z" fill="#1b0bc9"/></svg>