<svg xmlns="http://www.w3.org/2000/svg" xmlns:xlink="http://www.w3.org/1999/xlink" viewBox="0 0 200 200"><defs><pattern id="a" width="48" height="48" patternTransform="translate(27.35 -20.66)" patternUnits="userSpaceOnUse" viewBox="0 0 48 48"><rect width="48" height="48" fill="none"/><path d="M4,38.5A2.5,2.5,0,0,0,6.5,36h-5A2.5,2.5,0,0,0,4,38.5Z" fill="#1b0bc9"/><path d="M12,38.5A2.5,2.5,0,0,0,14.5,36h-5A2.5,2.5,0,0,0,12,38.5Z" fill="#1b0bc9"/><path d="M20,38.5A2.5,2.5,0,0,0,22.5,36h-5A2.5,2.5,0,0,0,20,38.5Z" fill="#1b0bc9"/><path d="M28,38.5A2.5,2.5,0,0,0,30.5,36h-5A2.5,2.5,0,0,0,28,38.5Z" fill="#1b0bc9"/><path d="M36,38.5A2.5,2.5,0,0,0,38.5,36h-5A2.5,2.5,0,0,0,36,38.5Z" fill="#1b0bc9"/><path d="M44,38.5A2.5,2.5,0,0,0,46.5,36h-5A2.5,2.5,0,0,0,44,38.5Z" fill="#1b0bc9"/><path d="M2.5,42A2.5,2.5,0,0,0,0,39.5v5A2.5,2.5,0,0,0,2.5,42Z" fill="#1b0bc9"/><circle cx="8" cy="42" r="2.5" fill="#1b0bc9"/><circle cx="16" cy="42" r="2.5" fill="#1b0bc9"/><circle cx="24" cy="42" r="2.5" fill="#1b0bc9"/><circle cx="32" cy="42" r="2.5" fill="#1b0bc9"/><circle cx="40" cy="42" r="2.5" fill="#1b0bc9"/><path d="M45.5,42A2.5,2.5,0,0,0,48,44.5v-5A2.5,2.5,0,0,0,45.5,42Z" fill="#1b0bc9"/><circle cx="4" cy="48" r="2.5" fill="#1b0bc9"/><circle cx="12" cy="48" r="2.5" fill="#1b0bc9"/><circle cx="20" cy="48" r="2.5" fill="#1b0bc9"/><circle cx="28" cy="48" r="2.5" fill="#1b0bc9"/><circle cx="36" cy="48" r="2.5" fill="#1b0bc9"/><circle cx="44" cy="48" r="2.5" fill="#1b0bc9"/><path d="M4,14.5A2.5,2.5,0,0,0,6.5,12h-5A2.5,2.5,0,0,0,4,14.5Z" fill="#1b0bc9"/><path d="M12,14.5A2.5,2.5,0,0,0,14.5,12h-5A2.5,2.5,0,0,0,12,14.5Z" fill="#1b0bc9"/><path d="M20,14.5A2.5,2.5,0,0,0,22.5,12h-5A2.5,2.5,0,0,0,20,14.5Z" fill="#1b0bc9"/><path d="M28,14.5A2.5,2.5,0,0,0,30.5,12h-5A2.5,2.5,0,0,0,28,14.5Z" fill="#1b0bc9"/><path d="M36,14.5A2.5,2.5,0,0,0,38.5,12h-5A2.5,2.5,0,0,0,36,14.5Z" fill="#1b0bc9"/><path d="M44,14.5A2.5,2.5,0,0,0,46.5,12h-5A2.5,2.5,0,0,0,44,14.5Z" fill="#1b0bc9"/><path d="M2.5,18A2.5,2.5,0,0,0,0,15.5v5A2.5,2.5,0,0,0,2.5,18Z" fill="#1b0bc9"/><circle cx="8" cy="18" r="2.5" fill="#1b0bc9"/><circle cx="16" cy="18" r="2.5" fill="#1b0bc9"/><circle cx="24" cy="18" r="2.5" fill="#1b0bc9"/><circle cx="32" cy="18" r="2.5" fill="#1b0bc9"/><circle cx="40" cy="18" r="2.5" fill="#1b0bc9"/><path d="M45.5,18A2.5,2.5,0,0,0,48,20.5v-5A2.5,2.5,0,0,0,45.5,18Z" fill="#1b0bc9"/><circle cx="4" cy="24" r="2.5" fill="#1b0bc9"/><circle cx="12" cy="24" r="2.5" fill="#1b0bc9"/><circle cx="20" cy="24" r="2.5" fill="#1b0bc9"/><circle cx="28" cy="24" r="2.5" fill="#1b0bc9"/><circle cx="36" cy="24" r="2.5" fill="#1b0bc9"/><circle cx="44" cy="24" r="2.5" fill="#1b0bc9"/><path d="M2.5,30A2.5,2.5,0,0,0,0,27.5v5A2.5,2.5,0,0,0,2.5,30Z" fill="#1b0bc9"/><circle cx="8" cy="30" r="2.5" fill="#1b0bc9"/><circle cx="16" cy="30" r="2.5" fill="#1b0bc9"/><circle cx="24" cy="30" r="2.5" fill="#1b0bc9"/><circle cx="32" cy="30" r="2.5" fill="#1b0bc9"/><circle cx="40" cy="30" r="2.5" fill="#1b0bc9"/><path d="M45.5,30A2.5,2.5,0,0,0,48,32.5v-5A2.5,2.5,0,0,0,45.5,30Z" fill="#1b0bc9"/><path d="M4,33.5A2.5,2.5,0,0,0,1.5,36h5A2.5,2.5,0,0,0,4,33.5Z" fill="#1b0bc9"/><path d="M12,33.5A2.5,2.5,0,0,0,9.5,36h5A2.5,2.5,0,0,0,12,33.5Z" fill="#1b0bc9"/><path d="M20,33.5A2.5,2.5,0,0,0,17.5,36h5A2.5,2.5,0,0,0,20,33.5Z" fill="#1b0bc9"/><path d="M28,33.5A2.5,2.5,0,0,0,25.5,36h5A2.5,2.5,0,0,0,28,33.5Z" fill="#1b0bc9"/><path d="M36,33.5A2.5,2.5,0,0,0,33.5,36h5A2.5,2.5,0,0,0,36,33.5Z" fill="#1b0bc9"/><path d="M44,33.5A2.5,2.5,0,0,0,41.5,36h5A2.5,2.5,0,0,0,44,33.5Z" fill="#1b0bc9"/><circle cx="4" r="2.5" fill="#1b0bc9"/><circle cx="12" r="2.5" fill="#1b0bc9"/><circle cx="20" r="2.5" fill="#1b0bc9"/><circle cx="28" r="2.5" fill="#1b0bc9"/><circle cx="36" r="2.5" fill="#1b0bc9"/><circle cx="44" r="2.5" fill="#1b0bc9"/><path d="M2.5,6A2.5,2.5,0,0,0,0,3.5v5A2.5,2.5,0,0,0,2.5,6Z" fill="#1b0bc9"/><circle cx="8" cy="6" r="2.5" fill="#1b0bc9"/><circle cx="16" cy="6" r="2.5" fill="#1b0bc9"/><circle cx="24" cy="6" r="2.5" fill="#1b0bc9"/><circle cx="32" cy="6" r="2.5" fill="#1b0bc9"/><circle cx="40" cy="6" r="2.5" fill="#1b0bc9"/><path d="M45.5,6A2.5,2.5,0,0,0,48,8.5v-5A2.5,2.5,0,0,0,45.5,6Z" fill="#1b0bc9"/><path d="M4,9.5A2.5,2.5,0,0,0,1.5,12h5A2.5,2.5,0,0,0,4,9.5Z" fill="#1b0bc9"/><path d="M12,9.5A2.5,2.5,0,0,0,9.5,12h5A2.5,2.5,0,0,0,12,9.5Z" fill="#1b0bc9"/><path d="M20,9.5A2.5,2.5,0,0,0,17.5,12h5A2.5,2.5,0,0,0,20,9.5Z" fill="#1b0bc9"/><path d="M28,9.5A2.5,2.5,0,0,0,25.5,12h5A2.5,2.5,0,0,0,28,9.5Z" fill="#1b0bc9"/><path d="M36,9.5A2.5,2.5,0,0,0,33.5,12h5A2.5,2.5,0,0,0,36,9.5Z" fill="#1b0bc9"/><path d="M44,9.5A2.5,2.5,0,0,0,41.5,12h5A2.5,2.5,0,0,0,44,9.5Z" fill="#1b0bc9"/></pattern></defs><path d="M162.15,24.31H122.73a2,2,0,0,0-2,2v2.83a3.19,3.19,0,0,1-3.19,3.19h-5.63a3.42,3.42,0,0,1-3.42-3.42,4.6,4.6,0,0,0-4.6-4.6H91.44a2,2,0,0,0-2,2v9.83H44.16a9.25,9.25,0,0,0-7.77-4.24H24.3a2,2,0,0,0-2,2V55a2,2,0,0,0,2,2H36.39a9.28,9.28,0,0,0,7.77-4.24H89.44v9.83a2,2,0,0,0,2,2h12.45a4.61,4.61,0,0,0,4.6-4.6,3.42,3.42,0,0,1,3.42-3.42h5.63a3.19,3.19,0,0,1,3.19,3.19v2.83a2,2,0,0,0,2,2h39.42a20.15,20.15,0,1,0,0-40.3ZM36.39,53H26.3V35.9H36.39a5.28,5.28,0,0,1,5.28,5.27v6.57A5.29,5.29,0,0,1,36.39,53Zm9.17-4.24a8.94,8.94,0,0,0,.11-1V41.17a8.77,8.77,0,0,0-.11-1H89.44v8.64ZM162.15,60.61H124.73V28.31h37.42a16.15,16.15,0,1,1,0,32.3Z" fill="#1b0bc9"/><path d="M36.39,53H26.3V35.9H36.39a5.28,5.28,0,0,1,5.28,5.27v6.57A5.29,5.29,0,0,1,36.39,53Z" fill="url(#a)"/><path d="M124.73,28.31h37.42a16.15,16.15,0,1,1,0,32.3H124.73v-.83" fill="url(#a)"/><path d="M39.17,113.59H23.64a2,2,0,0,0-1.77,2.93,26.56,26.56,0,0,0,48-1.79h63.67a26.56,26.56,0,0,0,48,1.79,2,2,0,0,0-1.77-2.93H164.26a9.33,9.33,0,1,1,0-18.65h15.53a2,2,0,0,0,1.71-1,2,2,0,0,0,.06-2,26.57,26.57,0,0,0-47.66,1H69.54a26.57,26.57,0,0,0-47.67-1,2,2,0,0,0,.06,2,2,2,0,0,0,1.71,1H39.17a9.33,9.33,0,1,1,0,18.65Zm40.67-2.86V97H125v13.74ZM135.2,97a2,2,0,0,0,1.86-1.24,22.57,22.57,0,0,1,39.15-4.81h-12a13.33,13.33,0,1,0,0,26.65h12A22.56,22.56,0,0,1,136.79,112a2,2,0,0,0-1.88-1.31H129V97Zm-96-6H27.23a22.57,22.57,0,0,1,39.15,4.81A2,2,0,0,0,68.23,97h7.61v13.74H68.52A2,2,0,0,0,66.65,112a22.56,22.56,0,0,1-39.42,5.55H39.17a13.33,13.33,0,1,0,0-26.65Z" fill="#1b0bc9"/><rect x="79.84" y="96.99" width="45.13" height="13.74" fill="url(#a)"/><path d="M161.66,144H122.24a2,2,0,0,0-1.85,1.23,2.07,2.07,0,0,0-.15.77v2.85a3.19,3.19,0,0,1-3.19,3.17h-5.63A3.42,3.42,0,0,1,108,148.6a4.61,4.61,0,0,0-4.6-4.6H91a2,2,0,0,0-2,2v9.83H43.67a9.28,9.28,0,0,0-7.77-4.24H23.81a2,2,0,0,0-2,2v21.12a2,2,0,0,0,2,2H35.9a9.25,9.25,0,0,0,7.77-4.24H89v9.83a2,2,0,0,0,2,2H103.4a4.6,4.6,0,0,0,4.6-4.6,3.42,3.42,0,0,1,3.42-3.42h5.63a3.18,3.18,0,0,1,3.19,3.19v2.83a2,2,0,0,0,2,2h39.42a20.15,20.15,0,0,0,0-40.3ZM45.07,168.47a8.77,8.77,0,0,0,.11-1v-6.57a8.94,8.94,0,0,0-.11-1H89v8.64ZM104,179.7a.6.6,0,0,1-.6.6H93V148H103.4a.6.6,0,0,1,.6.6s.58,5.68,4,6.55a7.32,7.32,0,0,0,3.42.87h5.63a7,7,0,0,0,3.19-.78v17.82a7.12,7.12,0,0,0-3.19-.78h-5.63a7.45,7.45,0,0,0-3.42.87,9.12,9.12,0,0,0-4,6.55" fill="#1b0bc9"/><path d="M104,179.7a.6.6,0,0,1-.6.6H93V148H103.4a.6.6,0,0,1,.6.6s.58,5.68,4,6.55a7.32,7.32,0,0,0,3.42.87h5.63a7,7,0,0,0,3.19-.78v17.82a7.12,7.12,0,0,0-3.19-.78h-5.63a7.45,7.45,0,0,0-3.42.87,9.12,9.12,0,0,0-4,6.55" fill="url(#a)"/></svg>