<svg xmlns="http://www.w3.org/2000/svg" xmlns:xlink="http://www.w3.org/1999/xlink" viewBox="0 0 200 200"><defs><pattern id="a" width="48" height="48" patternTransform="translate(-31.88 -41.32)" patternUnits="userSpaceOnUse" viewBox="0 0 48 48"><rect width="48" height="48" fill="none"/><path d="M4,38.5A2.5,2.5,0,0,0,6.5,36h-5A2.5,2.5,0,0,0,4,38.5Z" fill="#1b0bc9"/><path d="M12,38.5A2.5,2.5,0,0,0,14.5,36h-5A2.5,2.5,0,0,0,12,38.5Z" fill="#1b0bc9"/><path d="M20,38.5A2.5,2.5,0,0,0,22.5,36h-5A2.5,2.5,0,0,0,20,38.5Z" fill="#1b0bc9"/><path d="M28,38.5A2.5,2.5,0,0,0,30.5,36h-5A2.5,2.5,0,0,0,28,38.5Z" fill="#1b0bc9"/><path d="M36,38.5A2.5,2.5,0,0,0,38.5,36h-5A2.5,2.5,0,0,0,36,38.5Z" fill="#1b0bc9"/><path d="M44,38.5A2.5,2.5,0,0,0,46.5,36h-5A2.5,2.5,0,0,0,44,38.5Z" fill="#1b0bc9"/><path d="M2.5,42A2.5,2.5,0,0,0,0,39.5v5A2.5,2.5,0,0,0,2.5,42Z" fill="#1b0bc9"/><circle cx="8" cy="42" r="2.5" fill="#1b0bc9"/><circle cx="16" cy="42" r="2.5" fill="#1b0bc9"/><circle cx="24" cy="42" r="2.5" fill="#1b0bc9"/><circle cx="32" cy="42" r="2.5" fill="#1b0bc9"/><circle cx="40" cy="42" r="2.5" fill="#1b0bc9"/><path d="M45.5,42A2.5,2.5,0,0,0,48,44.5v-5A2.5,2.5,0,0,0,45.5,42Z" fill="#1b0bc9"/><circle cx="4" cy="48" r="2.5" fill="#1b0bc9"/><circle cx="12" cy="48" r="2.5" fill="#1b0bc9"/><circle cx="20" cy="48" r="2.5" fill="#1b0bc9"/><circle cx="28" cy="48" r="2.5" fill="#1b0bc9"/><circle cx="36" cy="48" r="2.5" fill="#1b0bc9"/><circle cx="44" cy="48" r="2.5" fill="#1b0bc9"/><path d="M4,14.5A2.5,2.5,0,0,0,6.5,12h-5A2.5,2.5,0,0,0,4,14.5Z" fill="#1b0bc9"/><path d="M12,14.5A2.5,2.5,0,0,0,14.5,12h-5A2.5,2.5,0,0,0,12,14.5Z" fill="#1b0bc9"/><path d="M20,14.5A2.5,2.5,0,0,0,22.5,12h-5A2.5,2.5,0,0,0,20,14.5Z" fill="#1b0bc9"/><path d="M28,14.5A2.5,2.5,0,0,0,30.5,12h-5A2.5,2.5,0,0,0,28,14.5Z" fill="#1b0bc9"/><path d="M36,14.5A2.5,2.5,0,0,0,38.5,12h-5A2.5,2.5,0,0,0,36,14.5Z" fill="#1b0bc9"/><path d="M44,14.5A2.5,2.5,0,0,0,46.5,12h-5A2.5,2.5,0,0,0,44,14.5Z" fill="#1b0bc9"/><path d="M2.5,18A2.5,2.5,0,0,0,0,15.5v5A2.5,2.5,0,0,0,2.5,18Z" fill="#1b0bc9"/><circle cx="8" cy="18" r="2.5" fill="#1b0bc9"/><circle cx="16" cy="18" r="2.5" fill="#1b0bc9"/><circle cx="24" cy="18" r="2.5" fill="#1b0bc9"/><circle cx="32" cy="18" r="2.5" fill="#1b0bc9"/><circle cx="40" cy="18" r="2.5" fill="#1b0bc9"/><path d="M45.5,18A2.5,2.5,0,0,0,48,20.5v-5A2.5,2.5,0,0,0,45.5,18Z" fill="#1b0bc9"/><circle cx="4" cy="24" r="2.5" fill="#1b0bc9"/><circle cx="12" cy="24" r="2.5" fill="#1b0bc9"/><circle cx="20" cy="24" r="2.5" fill="#1b0bc9"/><circle cx="28" cy="24" r="2.5" fill="#1b0bc9"/><circle cx="36" cy="24" r="2.5" fill="#1b0bc9"/><circle cx="44" cy="24" r="2.5" fill="#1b0bc9"/><path d="M2.5,30A2.5,2.5,0,0,0,0,27.5v5A2.5,2.5,0,0,0,2.5,30Z" fill="#1b0bc9"/><circle cx="8" cy="30" r="2.5" fill="#1b0bc9"/><circle cx="16" cy="30" r="2.5" fill="#1b0bc9"/><circle cx="24" cy="30" r="2.5" fill="#1b0bc9"/><circle cx="32" cy="30" r="2.5" fill="#1b0bc9"/><circle cx="40" cy="30" r="2.5" fill="#1b0bc9"/><path d="M45.5,30A2.5,2.5,0,0,0,48,32.5v-5A2.5,2.5,0,0,0,45.5,30Z" fill="#1b0bc9"/><path d="M4,33.5A2.5,2.5,0,0,0,1.5,36h5A2.5,2.5,0,0,0,4,33.5Z" fill="#1b0bc9"/><path d="M12,33.5A2.5,2.5,0,0,0,9.5,36h5A2.5,2.5,0,0,0,12,33.5Z" fill="#1b0bc9"/><path d="M20,33.5A2.5,2.5,0,0,0,17.5,36h5A2.5,2.5,0,0,0,20,33.5Z" fill="#1b0bc9"/><path d="M28,33.5A2.5,2.5,0,0,0,25.5,36h5A2.5,2.5,0,0,0,28,33.5Z" fill="#1b0bc9"/><path d="M36,33.5A2.5,2.5,0,0,0,33.5,36h5A2.5,2.5,0,0,0,36,33.5Z" fill="#1b0bc9"/><path d="M44,33.5A2.5,2.5,0,0,0,41.5,36h5A2.5,2.5,0,0,0,44,33.5Z" fill="#1b0bc9"/><circle cx="4" r="2.5" fill="#1b0bc9"/><circle cx="12" r="2.5" fill="#1b0bc9"/><circle cx="20" r="2.5" fill="#1b0bc9"/><circle cx="28" r="2.5" fill="#1b0bc9"/><circle cx="36" r="2.5" fill="#1b0bc9"/><circle cx="44" r="2.5" fill="#1b0bc9"/><path d="M2.5,6A2.5,2.5,0,0,0,0,3.5v5A2.5,2.5,0,0,0,2.5,6Z" fill="#1b0bc9"/><circle cx="8" cy="6" r="2.5" fill="#1b0bc9"/><circle cx="16" cy="6" r="2.5" fill="#1b0bc9"/><circle cx="24" cy="6" r="2.5" fill="#1b0bc9"/><circle cx="32" cy="6" r="2.5" fill="#1b0bc9"/><circle cx="40" cy="6" r="2.5" fill="#1b0bc9"/><path d="M45.5,6A2.5,2.5,0,0,0,48,8.5v-5A2.5,2.5,0,0,0,45.5,6Z" fill="#1b0bc9"/><path d="M4,9.5A2.5,2.5,0,0,0,1.5,12h5A2.5,2.5,0,0,0,4,9.5Z" fill="#1b0bc9"/><path d="M12,9.5A2.5,2.5,0,0,0,9.5,12h5A2.5,2.5,0,0,0,12,9.5Z" fill="#1b0bc9"/><path d="M20,9.5A2.5,2.5,0,0,0,17.5,12h5A2.5,2.5,0,0,0,20,9.5Z" fill="#1b0bc9"/><path d="M28,9.5A2.5,2.5,0,0,0,25.5,12h5A2.5,2.5,0,0,0,28,9.5Z" fill="#1b0bc9"/><path d="M36,9.5A2.5,2.5,0,0,0,33.5,12h5A2.5,2.5,0,0,0,36,9.5Z" fill="#1b0bc9"/><path d="M44,9.5A2.5,2.5,0,0,0,41.5,12h5A2.5,2.5,0,0,0,44,9.5Z" fill="#1b0bc9"/></pattern></defs><path d="M21.49,176.15A2,2,0,0,0,24,177.42c.66-.22,67.13-21.55,154.9,0a2,2,0,0,0,.48.06,2,2,0,0,0,.47-3.94,337,337,0,0,0-33.73-6.49,20.77,20.77,0,0,0,13.65-17.5h9.06a10,10,0,0,0,9.91-8.26c8.29-45.69-.22-79-25.29-99.1a14.8,14.8,0,0,0-9.21-3.2H112V25a7.39,7.39,0,0,0-7.26-7.49,1.42,1.42,0,0,0-.29,0L49,25.52A7.39,7.39,0,0,0,41.85,33v6H36.17A14.65,14.65,0,0,0,21.54,53.67V135a14.65,14.65,0,0,0,14.63,14.64h3.9a20.78,20.78,0,0,0,13.59,17.48c-19.31,2.82-30.64,6.46-30.91,6.55A2,2,0,0,0,21.49,176.15Zm117.66-11.83a16.73,16.73,0,1,1,16.73-16.73A16.75,16.75,0,0,1,139.15,164.32Zm-20.63-18.73H90.14V67.22a4.2,4.2,0,0,1,4.2-4.2h23.71a4.2,4.2,0,0,1,4.2,4.2v68.36s0,0,0,0A20.62,20.62,0,0,0,118.52,145.59Zm56.3-5a6.07,6.07,0,0,1-6,5h-9.06a20.69,20.69,0,0,0-33.52-14.2V103.68h51.4A164.26,164.26,0,0,1,174.82,140.62Zm2.55-40.94H138.3V65a2,2,0,0,1,2-2H166.4C172.56,73.25,176.21,85.5,177.37,99.68ZM36.18,43H144.25A10.79,10.79,0,0,1,151,45.35,65.8,65.8,0,0,1,163.77,59H140.31a6,6,0,0,0-6,6V99.68h-8.05V67.22a8.2,8.2,0,0,0-8.2-8.2H94.34a8.2,8.2,0,0,0-8.2,8.2V99.68H25.54v-46A10.65,10.65,0,0,1,36.18,43ZM25.54,135V103.68h60.6v41.91h-4.8a20.73,20.73,0,0,0-41.26,0h-3.9A10.65,10.65,0,0,1,25.54,135ZM44,147.59a16.74,16.74,0,1,1,16.74,16.73A16.76,16.76,0,0,1,44,147.59Zm37.37,2h37.18a20.75,20.75,0,0,0,9.5,15.46A330.92,330.92,0,0,0,72,165,20.76,20.76,0,0,0,81.34,149.59Z" fill="#1b0bc9"/><path d="M69.56,147.59a8.86,8.86,0,1,0-8.85,8.86A8.86,8.86,0,0,0,69.56,147.59Z" fill="#1b0bc9"/><path d="M139.15,138.74a8.86,8.86,0,1,0,8.86,8.85A8.86,8.86,0,0,0,139.15,138.74Z" fill="#1b0bc9"/><path d="M40.54,88.91H70.63a8.19,8.19,0,0,0,8.18-8.18V67.2A8.19,8.19,0,0,0,70.63,59H40.54a8.19,8.19,0,0,0-8.18,8.18V80.73A8.19,8.19,0,0,0,40.54,88.91ZM74.81,67.2V80.73a4.18,4.18,0,0,1-4.18,4.18H65.92V63h4.71A4.18,4.18,0,0,1,74.81,67.2Zm-38.45,0A4.18,4.18,0,0,1,40.54,63H61.92V84.91H40.54a4.19,4.19,0,0,1-4.18-4.18Z" fill="#1b0bc9"/><path d="M55.69,79a2,2,0,0,0,2-2V70.91a2,2,0,0,0-4,0V77A2,2,0,0,0,55.69,79Z" fill="#1b0bc9"/><path d="M115.47,108.9a2,2,0,0,0-2,2v6.23a2,2,0,0,0,4,0V110.9A2,2,0,0,0,115.47,108.9Z" fill="#1b0bc9"/><path d="M25.54,135V103.68h60.6v41.91h-4.8a20.73,20.73,0,0,0-41.26,0h-3.9A10.65,10.65,0,0,1,25.54,135Z" fill="url(#a)"/><path d="M174.82,140.62a6.07,6.07,0,0,1-6,5h-9.06a20.69,20.69,0,0,0-33.52-14.2V103.68h51.4A164.26,164.26,0,0,1,174.82,140.62Z" fill="url(#a)"/></svg>