<svg xmlns="http://www.w3.org/2000/svg" xmlns:xlink="http://www.w3.org/1999/xlink" viewBox="0 0 200 200"><defs><pattern id="a" width="48" height="48" patternTransform="translate(-38.9 -63.22)" patternUnits="userSpaceOnUse" viewBox="0 0 48 48"><rect width="48" height="48" fill="none"/><path d="M4,38.5A2.5,2.5,0,0,0,6.5,36h-5A2.5,2.5,0,0,0,4,38.5Z" fill="#1b0bc9"/><path d="M12,38.5A2.5,2.5,0,0,0,14.5,36h-5A2.5,2.5,0,0,0,12,38.5Z" fill="#1b0bc9"/><path d="M20,38.5A2.5,2.5,0,0,0,22.5,36h-5A2.5,2.5,0,0,0,20,38.5Z" fill="#1b0bc9"/><path d="M28,38.5A2.5,2.5,0,0,0,30.5,36h-5A2.5,2.5,0,0,0,28,38.5Z" fill="#1b0bc9"/><path d="M36,38.5A2.5,2.5,0,0,0,38.5,36h-5A2.5,2.5,0,0,0,36,38.5Z" fill="#1b0bc9"/><path d="M44,38.5A2.5,2.5,0,0,0,46.5,36h-5A2.5,2.5,0,0,0,44,38.5Z" fill="#1b0bc9"/><path d="M2.5,42A2.5,2.5,0,0,0,0,39.5v5A2.5,2.5,0,0,0,2.5,42Z" fill="#1b0bc9"/><circle cx="8" cy="42" r="2.5" fill="#1b0bc9"/><circle cx="16" cy="42" r="2.5" fill="#1b0bc9"/><circle cx="24" cy="42" r="2.5" fill="#1b0bc9"/><circle cx="32" cy="42" r="2.5" fill="#1b0bc9"/><circle cx="40" cy="42" r="2.5" fill="#1b0bc9"/><path d="M45.5,42A2.5,2.5,0,0,0,48,44.5v-5A2.5,2.5,0,0,0,45.5,42Z" fill="#1b0bc9"/><circle cx="4" cy="48" r="2.5" fill="#1b0bc9"/><circle cx="12" cy="48" r="2.5" fill="#1b0bc9"/><circle cx="20" cy="48" r="2.5" fill="#1b0bc9"/><circle cx="28" cy="48" r="2.5" fill="#1b0bc9"/><circle cx="36" cy="48" r="2.5" fill="#1b0bc9"/><circle cx="44" cy="48" r="2.5" fill="#1b0bc9"/><path d="M4,14.5A2.5,2.5,0,0,0,6.5,12h-5A2.5,2.5,0,0,0,4,14.5Z" fill="#1b0bc9"/><path d="M12,14.5A2.5,2.5,0,0,0,14.5,12h-5A2.5,2.5,0,0,0,12,14.5Z" fill="#1b0bc9"/><path d="M20,14.5A2.5,2.5,0,0,0,22.5,12h-5A2.5,2.5,0,0,0,20,14.5Z" fill="#1b0bc9"/><path d="M28,14.5A2.5,2.5,0,0,0,30.5,12h-5A2.5,2.5,0,0,0,28,14.5Z" fill="#1b0bc9"/><path d="M36,14.5A2.5,2.5,0,0,0,38.5,12h-5A2.5,2.5,0,0,0,36,14.5Z" fill="#1b0bc9"/><path d="M44,14.5A2.5,2.5,0,0,0,46.5,12h-5A2.5,2.5,0,0,0,44,14.5Z" fill="#1b0bc9"/><path d="M2.5,18A2.5,2.5,0,0,0,0,15.5v5A2.5,2.5,0,0,0,2.5,18Z" fill="#1b0bc9"/><circle cx="8" cy="18" r="2.5" fill="#1b0bc9"/><circle cx="16" cy="18" r="2.5" fill="#1b0bc9"/><circle cx="24" cy="18" r="2.5" fill="#1b0bc9"/><circle cx="32" cy="18" r="2.5" fill="#1b0bc9"/><circle cx="40" cy="18" r="2.5" fill="#1b0bc9"/><path d="M45.5,18A2.5,2.5,0,0,0,48,20.5v-5A2.5,2.5,0,0,0,45.5,18Z" fill="#1b0bc9"/><circle cx="4" cy="24" r="2.5" fill="#1b0bc9"/><circle cx="12" cy="24" r="2.5" fill="#1b0bc9"/><circle cx="20" cy="24" r="2.5" fill="#1b0bc9"/><circle cx="28" cy="24" r="2.5" fill="#1b0bc9"/><circle cx="36" cy="24" r="2.5" fill="#1b0bc9"/><circle cx="44" cy="24" r="2.5" fill="#1b0bc9"/><path d="M2.5,30A2.5,2.5,0,0,0,0,27.5v5A2.5,2.5,0,0,0,2.5,30Z" fill="#1b0bc9"/><circle cx="8" cy="30" r="2.5" fill="#1b0bc9"/><circle cx="16" cy="30" r="2.5" fill="#1b0bc9"/><circle cx="24" cy="30" r="2.5" fill="#1b0bc9"/><circle cx="32" cy="30" r="2.5" fill="#1b0bc9"/><circle cx="40" cy="30" r="2.5" fill="#1b0bc9"/><path d="M45.5,30A2.5,2.5,0,0,0,48,32.5v-5A2.5,2.5,0,0,0,45.5,30Z" fill="#1b0bc9"/><path d="M4,33.5A2.5,2.5,0,0,0,1.5,36h5A2.5,2.5,0,0,0,4,33.5Z" fill="#1b0bc9"/><path d="M12,33.5A2.5,2.5,0,0,0,9.5,36h5A2.5,2.5,0,0,0,12,33.5Z" fill="#1b0bc9"/><path d="M20,33.5A2.5,2.5,0,0,0,17.5,36h5A2.5,2.5,0,0,0,20,33.5Z" fill="#1b0bc9"/><path d="M28,33.5A2.5,2.5,0,0,0,25.5,36h5A2.5,2.5,0,0,0,28,33.5Z" fill="#1b0bc9"/><path d="M36,33.5A2.5,2.5,0,0,0,33.5,36h5A2.5,2.5,0,0,0,36,33.5Z" fill="#1b0bc9"/><path d="M44,33.5A2.5,2.5,0,0,0,41.5,36h5A2.5,2.5,0,0,0,44,33.5Z" fill="#1b0bc9"/><circle cx="4" r="2.5" fill="#1b0bc9"/><circle cx="12" r="2.5" fill="#1b0bc9"/><circle cx="20" r="2.5" fill="#1b0bc9"/><circle cx="28" r="2.5" fill="#1b0bc9"/><circle cx="36" r="2.5" fill="#1b0bc9"/><circle cx="44" r="2.5" fill="#1b0bc9"/><path d="M2.5,6A2.5,2.5,0,0,0,0,3.5v5A2.5,2.5,0,0,0,2.5,6Z" fill="#1b0bc9"/><circle cx="8" cy="6" r="2.5" fill="#1b0bc9"/><circle cx="16" cy="6" r="2.5" fill="#1b0bc9"/><circle cx="24" cy="6" r="2.5" fill="#1b0bc9"/><circle cx="32" cy="6" r="2.5" fill="#1b0bc9"/><circle cx="40" cy="6" r="2.5" fill="#1b0bc9"/><path d="M45.5,6A2.5,2.5,0,0,0,48,8.5v-5A2.5,2.5,0,0,0,45.5,6Z" fill="#1b0bc9"/><path d="M4,9.5A2.5,2.5,0,0,0,1.5,12h5A2.5,2.5,0,0,0,4,9.5Z" fill="#1b0bc9"/><path d="M12,9.5A2.5,2.5,0,0,0,9.5,12h5A2.5,2.5,0,0,0,12,9.5Z" fill="#1b0bc9"/><path d="M20,9.5A2.5,2.5,0,0,0,17.5,12h5A2.5,2.5,0,0,0,20,9.5Z" fill="#1b0bc9"/><path d="M28,9.5A2.5,2.5,0,0,0,25.5,12h5A2.5,2.5,0,0,0,28,9.5Z" fill="#1b0bc9"/><path d="M36,9.5A2.5,2.5,0,0,0,33.5,12h5A2.5,2.5,0,0,0,36,9.5Z" fill="#1b0bc9"/><path d="M44,9.5A2.5,2.5,0,0,0,41.5,12h5A2.5,2.5,0,0,0,44,9.5Z" fill="#1b0bc9"/></pattern></defs><path d="M145.51,148.35a9.41,9.41,0,1,0,9.38,9.41A9.4,9.4,0,0,0,145.51,148.35Z" fill="#1b0bc9"/><path d="M58.6,148.35A9.41,9.41,0,1,0,68,157.76,9.41,9.41,0,0,0,58.6,148.35Z" fill="#1b0bc9"/><path d="M180.73,148.07h-2.41V105.28c0-16.74-1.56-32.43-4.19-42a17.51,17.51,0,0,0-14.44-12.6V29.78a2,2,0,0,0-1.39-1.9c-54.75-17.69-105.68-.16-106.19,0a2,2,0,0,0-1.34,1.88v21a17.31,17.31,0,0,0-10.72,6.11c-12.17,14.86-13.5,47-13.55,48.42v42.78H24.73a2,2,0,0,0-2,2v14.46a2,2,0,0,0,2,2H38.25a22.09,22.09,0,0,0,40.7,0h46.21a22.09,22.09,0,0,0,40.7,0h14.87a2,2,0,0,0,2-2V150.07A2,2,0,0,0,180.73,148.07ZM43.14,59.4a13.46,13.46,0,0,1,10.45-4.88H157.21a13.53,13.53,0,0,1,13.07,9.84c.94,3.44,4,16.52,4,40.64H30.52c.05-1,.22-3.9.67-7.91H53.43a6.65,6.65,0,0,0,6.64-6.64V71.79a6.66,6.66,0,0,0-6.64-6.65h-14A33.84,33.84,0,0,1,43.14,59.4Zm-5.52,9.74H53.43a2.65,2.65,0,0,1,2.64,2.65V90.45a2.64,2.64,0,0,1-2.64,2.64H31.69C32.68,85.94,34.46,76.86,37.62,69.14ZM30.5,109H174.32v39.07h-8.9a22,22,0,0,0-39.81,0H78.51a22.05,22.05,0,0,0-39.82,0H30.5Zm-3.77,53.53V152.07H37.21A21.7,21.7,0,0,0,37,162.53ZM58.6,176a18.32,18.32,0,1,1,17.13-12.29l0,.08A18.17,18.17,0,0,1,58.6,176Zm21.62-13.49A21.7,21.7,0,0,0,80,152.07h44.14a21.82,21.82,0,0,0-.77,5.69,22.07,22.07,0,0,0,.53,4.77ZM145.51,176a18.26,18.26,0,1,1,18.15-18.26A18.23,18.23,0,0,1,145.51,176Zm33.22-13.49H167.14a22.71,22.71,0,0,0,.52-4.77,22.25,22.25,0,0,0-.76-5.69h11.83Z" fill="#1b0bc9"/><path d="M74.66,97.09H99a6.65,6.65,0,0,0,6.65-6.64V71.79A6.66,6.66,0,0,0,99,65.14H74.66A6.66,6.66,0,0,0,68,71.79V90.45A6.65,6.65,0,0,0,74.66,97.09ZM72,71.79a2.65,2.65,0,0,1,2.64-2.65H99a2.65,2.65,0,0,1,2.65,2.65V90.45A2.65,2.65,0,0,1,99,93.09H74.66A2.64,2.64,0,0,1,72,90.45Z" fill="#1b0bc9"/><path d="M120.19,97.09h24.3a6.65,6.65,0,0,0,6.65-6.64V71.79a6.66,6.66,0,0,0-6.65-6.65h-24.3a6.66,6.66,0,0,0-6.64,6.65V90.45A6.65,6.65,0,0,0,120.19,97.09Zm-2.64-25.3a2.65,2.65,0,0,1,2.64-2.65h24.3a2.65,2.65,0,0,1,2.65,2.65V90.45a2.65,2.65,0,0,1-2.65,2.64h-24.3a2.64,2.64,0,0,1-2.64-2.64Z" fill="#1b0bc9"/><path d="M158.93,97.09h6.73a2,2,0,0,0,0-4h-6.73a2,2,0,0,0,0,4Z" fill="#1b0bc9"/><path d="M158.93,88.07h6.73a2,2,0,0,0,0-4h-6.73a2,2,0,0,0,0,4Z" fill="#1b0bc9"/><path d="M158.93,79.06h6.73a2,2,0,0,0,0-4h-6.73a2,2,0,0,0,0,4Z" fill="#1b0bc9"/><path d="M30.5,109H174.32v39.07h-8.9a22,22,0,0,0-39.81,0H78.51a22.05,22.05,0,0,0-39.82,0H30.5Z" fill="url(#a)"/></svg>